<svg xmlns="http://www.w3.org/2000/svg" viewBox="0 0 800 300" width="800" height="300" xmlns:c2pa="http://c2pa.org/manifest"><metadata><c2pa:manifest>AAAWgmp1bWIAAAAeanVtZGMycGEAEQAQgAAAqgA4m3EDYzJwYQAAABZcanVtYgAAAEdqdW1kYzJtYQARABCAAACqADibcQN1cm46YzJwYTphYTZmNzU2NC0yZTZiLTRlNmMtODRkMy03ZTEwMWYwYjVkNTUAAAADl2p1bWIAAAApanVtZGMyYXMAEQAQgAAAqgA4m3EDYzJwYS5hc3NlcnRpb25zAAAAALxqdW1iAAAARGp1bWRjYm9yABEAEIAAAKoAOJtxE2MycGEuaW5ncmVkaWVudC52MwAAAAAYYzJzaBfIp/zLCx1OScJyZ6wU3sAAAABwY2JvcqNpZGM6Zm9ybWF0bWltYWdlL3N2Zyt4bWxqaW5zdGFuY2VJRHgseG1wOmlpZDowMWM4NjU1ZS1mYzZjLTQxYWUtOTAyNi1hYTRjMDlkMWQ1YTlscmVsYXRpb25zaGlwaHBhcmVudE9mAAAB4mp1bWIAAABBanVtZGNib3IAEQAQgAAAqgA4m3ETYzJwYS5hY3Rpb25zLnYyAAAAABhjMnNocriH9wIUr6082sEglHCy+wAAAZljYm9yomdhY3Rpb25zgqJmYWN0aW9ua2MycGEub3BlbmVkanBhcmFtZXRlcnOha2luZ3JlZGllbnRzgaJjdXJseC1zZWxmI2p1bWJmPWMycGEuYXNzZXJ0aW9ucy9jMnBhLmluZ3JlZGllbnQudjNkaGFzaFgg0liFNm3IhwQP/IGHkRo2K016fIBmy5uJ3gm7yAcAcbykZmFjdGlvbngdY29tLmFudGhyb3BpYy5jbGF1ZGUucHJvdmlkZWRqcGFyYW1ldGVyc6F4H2NvbS5hbnRocm9waWMub3JpZ2luLWNvbmZpZGVuY2VndW5rbm93bmtkZXNjcmlwdGlvbnhmQ2xhdWRlIHByb3ZpZGVkIHRoaXMgZmlsZSBhdCB0aGUgcmVxdWVzdCBvZiBhIHVzZXIgYW5kIG1heSBoYXZlIGNyZWF0ZWQgb3IgbW9kaWZpZWQgdGhlIGZpbGUgY29udGVudHMubXNvZnR3YXJlQWdlbnShZG5hbWVmQ2xhdWRlcmFsbEFjdGlvbnNJbmNsdWRlZPUAAADIanVtYgAAAEBqdW1kY2JvcgARABCAAACqADibcRNjMnBhLmhhc2guZGF0YQAAAAAYYzJzaJm2j3xWLCKTq4nRCb1qIOQAAACAY2JvcqVjYWxnZnNoYTI1NmNwYWRNAAAAAAAAAAAAAAAAAGRoYXNoWCDD7jLElcpcnmqWMt4nQDXo0EI1kBGIMDh5De1Z+kta1GRuYW1lbmp1bWJmIG1hbmlmZXN0amV4Y2x1c2lvbnOBomVzdGFydBiWZmxlbmd0aBkeBAAAAj5qdW1iAAAAJ2p1bWRjMmNsABEAEIAAAKoAOJtxA2MycGEuY2xhaW0udjIAAAACD2Nib3KlY2FsZ2ZzaGEyNTZpc2lnbmF0dXJleE1zZWxmI2p1bWJmPS9jMnBhL3VybjpjMnBhOmFhNmY3NTY0LTJlNmItNGU2Yy04NGQzLTdlMTAxZjBiNWQ1NS9jMnBhLnNpZ25hdHVyZWppbnN0YW5jZUlEeCx4bXA6aWlkOjdmZDg3ZWZjLWE4M2YtNDdlMi1iZjBhLTE5Mzk2ZGQwMDQ2YXJjcmVhdGVkX2Fzc2VydGlvbnODomN1cmx4LXNlbGYjanVtYmY9YzJwYS5hc3NlcnRpb25zL2MycGEuaW5ncmVkaWVudC52M2RoYXNoWCDSWIU2bciHBA/8gYeRGjYrTXp8gGbLm4neCbvIBwBxvKJjdXJseCpzZWxmI2p1bWJmPWMycGEuYXNzZXJ0aW9ucy9jMnBhLmFjdGlvbnMudjJkaGFzaFggX2ugSX0OvGMgsNU9VRDZNflARp0ekXbKjSKUbOnX9yWiY3VybHgpc2VsZiNqdW1iZj1jMnBhLmFzc2VydGlvbnMvYzJwYS5oYXNoLmRhdGFkaGFzaFggzBatQJFtsc3+UJOijCF6noS2IXEe4M+M98n3vAU8Krt0Y2xhaW1fZ2VuZXJhdG9yX2luZm+jZG5hbWVvQW50aHJvcGljIEZpbGVzZ3ZlcnNpb25lMS4wLjBrc3BlY1ZlcnNpb25lMi40LjAAABA4anVtYgAAAChqdW1kYzJjcwARABCAAACqADibcQNjMnBhLnNpZ25hdHVyZQAAABAIY2JvctKEWQISogEmGCFZAgowggIGMIIBjaADAgECAhRA5aAK7sI50L64g/oGQgU9Z1UTADAKBggqhkjOPQQDAzBJMRcwFQYDVQQKEw5BbnRocm9waWMsIFBCQzEuMCwGA1UEAxMlQW50aHJvcGljIENvbnRlbnQgQ3JlZGVudGlhbHMgUm9vdCBDQTAeFw0yNjA4MDcxODQzNTZaFw0yODA4MDYxOTQzNTZaMEQxFzAVBgNVBAoTDkFudGhyb3BpYywgUEJDMSkwJwYDVQQDEyBBbnRocm9waWMgQ2xhdWRlIENvbnRlbnQgU2lnbmluZzBZMBMGByqGSM49AgEGCCqGSM49AwEHA0IABJh6CmvLUBgFFNU0vUKlOVtE6djd17L5SuwX0LemFisBM3dkd/3cyjxFA3Qo5S46fX0/ihY0VZ7mfb9KF703t5OjWDBWMA4GA1UdDwEB/wQEAwIHgDAVBgNVHSUEDjAMBgorBgEEAYPoXgIBMAwGA1UdEwEB/wQCMAAwHwYDVR0jBBgwFoAUzlHiBIFOZFsj+OPEz5o+nMHXXMIwCgYIKoZIzj0EAwMDZwAwZAIwMXMdFJ4BetLLVY7ORuE9noqbbAZOZn/aArXyTwFAZfKrPzxF2vPoJNf1+UCdg1XGAjBwX1zd9WGqYkqmL5SFqw1QySjr1zJfpJM9+1rdDwSPLMOPOjKuiXjoU/pUUeG9RwmhY3BhZFkNngAAAAAAAAAAAAAAAAAAAAAAAAAAAAAAAAAAAAAAAAAAAAAAAAAAAAAAAAAAAAAAAAAAAAAAAAAAAAAAAAAAAAAAAAAAAAAAAAAAAAAAAAAAAAAAAAAAAAAAAAAAAAAAAAAAAAAAAAAAAAAAAAAAAAAAAAAAAAAAAAAAAAAAAAAAAAAAAAAAAAAAAAAAAAAAAAAAAAAAAAAAAAAAAAAAAAAAAAAAAAAAAAAAAAAAAAAAAAAAAAAAAAAAAAAAAAAAAAAAAAAAAAAAAAAAAAAAAAAAAAAAAAAAAAAAAAAAAAAAAAAAAAAAAAAAAAAAAAAAAAAAAAAAAAAAAAAAAAAAAAAAAAAAAAAAAAAAAAAAAAAAAAAAAAAAAAAAAAAAAAAAAAAAAAAAAAAAAAAAAAAAAAAAAAAAAAAAAAAAAAAAAAAAAAAAAAAAAAAAAAAAAAAAAAAAAAAAAAAAAAAAAAAAAAAAAAAAAAAAAAAAAAAAAAAAAAAAAAAAAAAAAAAAAAAAAAAAAAAAAAAAAAAAAAAAAAAAAAAAAAAAAAAAAAAAAAAAAAAAAAAAAAAAAAAAAAAAAAAAAAAAAAAAAAAAAAAAAAAAAAAAAAAAAAAAAAAAAAAAAAAAAAAAAAAAAAAAAAAAAAAAAAAAAAAAAAAAAAAAAAAAAAAAAAAAAAAAAAAAAAAAAAAAAAAAAAAAAAAAAAAAAAAAAAAAAAAAAAAAAAAAAAAAAAAAAAAAAAAAAAAAAAAAAAAAAAAAAAAAAAAAAAAAAAAAAAAAAAAAAAAAAAAAAAAAAAAAAAAAAAAAAAAAAAAAAAAAAAAAAAAAAAAAAAAAAAAAAAAAAAAAAAAAAAAAAAAAAAAAAAAAAAAAAAAAAAAAAAAAAAAAAAAAAAAAAAAAAAAAAAAAAAAAAAAAAAAAAAAAAAAAAAAAAAAAAAAAAAAAAAAAAAAAAAAAAAAAAAAAAAAAAAAAAAAAAAAAAAAAAAAAAAAAAAAAAAAAAAAAAAAAAAAAAAAAAAAAAAAAAAAAAAAAAAAAAAAAAAAAAAAAAAAAAAAAAAAAAAAAAAAAAAAAAAAAAAAAAAAAAAAAAAAAAAAAAAAAAAAAAAAAAAAAAAAAAAAAAAAAAAAAAAAAAAAAAAAAAAAAAAAAAAAAAAAAAAAAAAAAAAAAAAAAAAAAAAAAAAAAAAAAAAAAAAAAAAAAAAAAAAAAAAAAAAAAAAAAAAAAAAAAAAAAAAAAAAAAAAAAAAAAAAAAAAAAAAAAAAAAAAAAAAAAAAAAAAAAAAAAAAAAAAAAAAAAAAAAAAAAAAAAAAAAAAAAAAAAAAAAAAAAAAAAAAAAAAAAAAAAAAAAAAAAAAAAAAAAAAAAAAAAAAAAAAAAAAAAAAAAAAAAAAAAAAAAAAAAAAAAAAAAAAAAAAAAAAAAAAAAAAAAAAAAAAAAAAAAAAAAAAAAAAAAAAAAAAAAAAAAAAAAAAAAAAAAAAAAAAAAAAAAAAAAAAAAAAAAAAAAAAAAAAAAAAAAAAAAAAAAAAAAAAAAAAAAAAAAAAAAAAAAAAAAAAAAAAAAAAAAAAAAAAAAAAAAAAAAAAAAAAAAAAAAAAAAAAAAAAAAAAAAAAAAAAAAAAAAAAAAAAAAAAAAAAAAAAAAAAAAAAAAAAAAAAAAAAAAAAAAAAAAAAAAAAAAAAAAAAAAAAAAAAAAAAAAAAAAAAAAAAAAAAAAAAAAAAAAAAAAAAAAAAAAAAAAAAAAAAAAAAAAAAAAAAAAAAAAAAAAAAAAAAAAAAAAAAAAAAAAAAAAAAAAAAAAAAAAAAAAAAAAAAAAAAAAAAAAAAAAAAAAAAAAAAAAAAAAAAAAAAAAAAAAAAAAAAAAAAAAAAAAAAAAAAAAAAAAAAAAAAAAAAAAAAAAAAAAAAAAAAAAAAAAAAAAAAAAAAAAAAAAAAAAAAAAAAAAAAAAAAAAAAAAAAAAAAAAAAAAAAAAAAAAAAAAAAAAAAAAAAAAAAAAAAAAAAAAAAAAAAAAAAAAAAAAAAAAAAAAAAAAAAAAAAAAAAAAAAAAAAAAAAAAAAAAAAAAAAAAAAAAAAAAAAAAAAAAAAAAAAAAAAAAAAAAAAAAAAAAAAAAAAAAAAAAAAAAAAAAAAAAAAAAAAAAAAAAAAAAAAAAAAAAAAAAAAAAAAAAAAAAAAAAAAAAAAAAAAAAAAAAAAAAAAAAAAAAAAAAAAAAAAAAAAAAAAAAAAAAAAAAAAAAAAAAAAAAAAAAAAAAAAAAAAAAAAAAAAAAAAAAAAAAAAAAAAAAAAAAAAAAAAAAAAAAAAAAAAAAAAAAAAAAAAAAAAAAAAAAAAAAAAAAAAAAAAAAAAAAAAAAAAAAAAAAAAAAAAAAAAAAAAAAAAAAAAAAAAAAAAAAAAAAAAAAAAAAAAAAAAAAAAAAAAAAAAAAAAAAAAAAAAAAAAAAAAAAAAAAAAAAAAAAAAAAAAAAAAAAAAAAAAAAAAAAAAAAAAAAAAAAAAAAAAAAAAAAAAAAAAAAAAAAAAAAAAAAAAAAAAAAAAAAAAAAAAAAAAAAAAAAAAAAAAAAAAAAAAAAAAAAAAAAAAAAAAAAAAAAAAAAAAAAAAAAAAAAAAAAAAAAAAAAAAAAAAAAAAAAAAAAAAAAAAAAAAAAAAAAAAAAAAAAAAAAAAAAAAAAAAAAAAAAAAAAAAAAAAAAAAAAAAAAAAAAAAAAAAAAAAAAAAAAAAAAAAAAAAAAAAAAAAAAAAAAAAAAAAAAAAAAAAAAAAAAAAAAAAAAAAAAAAAAAAAAAAAAAAAAAAAAAAAAAAAAAAAAAAAAAAAAAAAAAAAAAAAAAAAAAAAAAAAAAAAAAAAAAAAAAAAAAAAAAAAAAAAAAAAAAAAAAAAAAAAAAAAAAAAAAAAAAAAAAAAAAAAAAAAAAAAAAAAAAAAAAAAAAAAAAAAAAAAAAAAAAAAAAAAAAAAAAAAAAAAAAAAAAAAAAAAAAAAAAAAAAAAAAAAAAAAAAAAAAAAAAAAAAAAAAAAAAAAAAAAAAAAAAAAAAAAAAAAAAAAAAAAAAAAAAAAAAAAAAAAAAAAAAAAAAAAAAAAAAAAAAAAAAAAAAAAAAAAAAAAAAAAAAAAAAAAAAAAAAAAAAAAAAAAAAAAAAAAAAAAAAAAAAAAAAAAAAAAAAAAAAAAAAAAAAAAAAAAAAAAAAAAAAAAAAAAAAAAAAAAAAAAAAAAAAAAAAAAAAAAAAAAAAAAAAAAAAAAAAAAAAAAAAAAAAAAAAAAAAAAAAAAAAAAAAAAAAAAAAAAAAAAAAAAAAAAAAAAAAAAAAAAAAAAAAAAAAAAAAAAAAAAAAAAAAAAAAAAAAAAAAAAAAAAAAAAAAAAAAAAAAAAAAAAAAAAAAAAAAAAAAAAAAAAAAAAAAAAAAAAAAAAAAAAAAAAAAAAAAAAAAAAAAAAAAAAAAAAAAAAAAAAAAAAAAAAAAAAAAAAAAAAAAAAAAAAAAAAAAAAAAAAAAAAAAAAAAAAAAAAAAAAAAAAAAAAAAAAAAAAAAAAAAAAAAAAAAAAAAAAAAAAAAAAAAAAAAAAAAAAAAAAAAAAAAAAAAAAAAAAAAAAAAAAAAAAAAAAAAAAAAAAAAAAAAAAAAAAAAAAAAAAAAAAAAAAAAAAAAAAAAAAAAAAAAAAAAAAAAAAAAAAAAAAAAAAAAAAAAAAAAAAAAAAAAAAAAAAAAAAAAAAAAAAAAAAAAAAAAAAAAAAAAAAAAAAAAAAAAAAAAAAAAAAAAAAAAAAAAAAAAAAAAAAAAAAAAAAAAAAAAAAAAAAAAAAAAAAAAAAAAAAAAAAAAAAAAAAAAAAAAAAAAAAAAAAAAAAAAAAAAAAAAAAAAAAAAAAAAAAAAAAAAAAAAAAAAAAAAAAAAAAAAAAAAAAAAAAAAAAAAAAAAAAAAAAAAAAAAAAAAAAAAAAAAAAAAAAAAAAAAAAAAAAAAAAAAAAAAAAAAAAAAAAAAAAAAAAAAAAAAAAAAAAAAAAAAAAAAAAAAAAAAAAAAAAAAAAAAAAAAAAAAAAAAAAAAAAAAAAAAAAAAAAAAAAAAAAAAAAAAAAAAAAAAAAAAAAAAAAAAAAAAAAAAAAAAAAAAAAAAAAAAAAAAAAAAAAAAAAAAAAAAAAAAAAAAAAAAAAAAAAAAAAAAAAAAAAAAAAAAAAAAAAAAAAAAAAAAAAAAAAAAAAAAAAAAAAAAAAAAAAAAAAAAAAAAAAAAAAAAAAAAAAAAAAAAAAAAAAAAAAAAAAAAAAAAAAAAAAAAAAAAAAAAAAAAAAAAAAAAAAAAAAAAAAAAAAAAAAAAAAAAAAAAAAAAAAAAAAAAAAAAAAAAAAAAAAAAAAAAAAAAAAAAAAAAAAAAAAAAAAAAAAAAAAAAAAAAAAAAAAAAAAAAAAAAAAAAAAAAAAAAAAAAAAAAAAAAAAAAAAAAAAAAAAAAAAAAAAAAAAAAAAAAAAAAAAAAAAAAAAAAAAAAAAAAAAAAAAAAAAAAAAAAAAAAAAAAAAAAAAAAAAAAAAAAAAAAAAAAAAAAAAAAAAAAAAAAAAAAAAAAAAAAAAAAAAAAAAAAAAAAAAAAAAAAAAAAAAAAAAAAAAAAAAAAAAAAAAAAAAAAAAAAAAAAAAAAAAAAAAAAAAAAAAAAAAAAAAAAAAAAAAAAAAAAAAAAPZYQEVlbH5Y1GmSQvgI46qFiefBlWaoXRuBRyKwRwlqcYeEbH/EIp5ZFLUDxLY8BveYNpqYL42SRZsuCOX11h4kEMo=</c2pa:manifest></metadata>
<defs><clipPath id="card"><rect width="800" height="300" rx="14"/></clipPath></defs>
<g clip-path="url(#card)">
<rect width="800" height="300" fill="#8e9e91"/>
<g transform="translate(406.2 0) scale(0.7692)">
<path d="M0 0 C168.96 0 337.92 0 512 0 C512 128.7 512 257.4 512 390 C343.04 390 174.08 390 0 390 C0 261.3 0 132.6 0 0 Z " fill="#8D9D90" transform="translate(0,0)"/>
<path d="M0 0 C2.5 0.28 3.66 0.6 5.31 2.55 C5.68 3.2 6.05 3.86 6.44 4.54 C6.65 4.9 6.65 4.9 7.71 6.74 C8.14 7.51 8.56 8.27 9 9.06 C9.43 9.8 9.85 10.54 10.29 11.3 C18.18 25.14 18.18 25.14 19.19 30.81 C19.34 31.65 19.5 32.49 19.66 33.36 C20 36 20 36 20.06 38.8 C20.19 44.2 20.67 47.34 24.5 51.31 C27.92 54.31 31.56 56.87 35.38 59.32 C47.76 67.27 61.49 76.18 66 91 C66.81 95.36 67.36 99.76 67.91 104.16 C68.93 112.28 70.38 120.08 75 127 C76.48 137.68 76.13 148.68 76.1 159.43 C76.1 161.05 76.09 162.66 76.09 164.28 C76.09 168.48 76.08 172.67 76.07 176.87 C76.06 181.17 76.05 185.48 76.05 189.78 C76.04 198.19 76.02 206.59 76 215 C75.04 215.34 74.08 215.67 73.09 216.02 C71.82 216.47 70.54 216.92 69.27 217.37 C68.64 217.59 68.01 217.81 67.36 218.04 C64.03 219.22 60.83 220.47 57.69 222.06 C54.27 223.67 50.93 224.47 47.23 225.19 C38.58 226.91 31.7 229.9 24.15 234.47 C23.45 234.9 22.75 235.32 22.02 235.76 C21.41 236.14 20.8 236.52 20.18 236.92 C14.71 239.63 9.43 240.25 3.39 240.24 C2.66 240.24 1.94 240.25 1.19 240.25 C-1.2 240.25 -3.58 240.24 -5.96 240.23 C-7.64 240.23 -9.32 240.23 -11 240.23 C-14.52 240.23 -18.03 240.22 -21.55 240.21 C-26.01 240.19 -30.47 240.18 -34.93 240.19 C-38.4 240.19 -41.87 240.18 -45.34 240.17 C-46.98 240.17 -48.62 240.17 -50.26 240.17 C-60.88 240.16 -71.41 239.79 -82 239 C-82.66 237.02 -83.32 235.04 -84 233 C-86.75 234.53 -88.92 235.92 -91.12 238.19 C-93 240 -93 240 -96 240 C-96.33 238.35 -96.66 236.7 -97 235 C-97.99 235 -98.98 235 -100 235 C-100.22 235.63 -100.45 236.27 -100.68 236.92 C-102 239 -102 239 -104.36 239.86 C-109.89 240.74 -114.51 241.22 -120 240 C-118.56 233.57 -115.35 228.38 -111.5 223.12 C-106.87 216.62 -104.02 210.53 -103.5 202.5 C-102.69 190.65 -96.27 182.85 -89 174 C-92.35 175.12 -95.25 176.61 -98.38 178.25 C-99.5 178.83 -100.62 179.42 -101.77 180.02 C-105.09 182.06 -107.51 184 -110 187 C-110 188.32 -110 189.64 -110 191 C-109.01 191.66 -108.02 192.32 -107 193 C-107 193.66 -107 194.32 -107 195 C-110.06 196.53 -112.63 196.23 -116 196 C-118.44 194.5 -118.44 194.5 -120 193 C-119.35 189.51 -117.9 186.97 -116 184 C-116.54 184.43 -117.09 184.87 -117.64 185.31 C-118.36 185.87 -119.08 186.43 -119.81 187 C-120.52 187.56 -121.23 188.11 -121.96 188.69 C-124 190 -124 190 -127 190 C-126.67 191.32 -126.34 192.64 -126 194 C-126.99 194 -127.98 194 -129 194 C-129.8 190.71 -130.1 189.29 -129 186 C-129.56 186.27 -130.11 186.53 -130.69 186.8 C-131.07 186.98 -131.07 186.98 -133 187.88 C-133.37 188.05 -133.37 188.05 -135.25 188.93 C-141.35 191.3 -146.58 192.14 -153.05 192.07 C-169.54 192.01 -185.02 196.54 -200.79 200.86 C-203.58 201.62 -206.37 202.36 -209.17 203.07 C-222.36 206.44 -233.07 211.84 -244 220 C-244.9 220.64 -245.81 221.28 -246.74 221.94 C-251.24 225.12 -255.48 228.36 -259.5 232.12 C-264.97 237.11 -271.41 242 -279 242 C-279.33 238.47 -279.28 236.49 -277.5 233.38 C-274.28 230.32 -271 228.83 -267 227 C-264.87 225.92 -262.75 224.84 -260.62 223.75 C-255.25 221 -255.25 221 -253 221 C-251.41 218.35 -250.99 216.84 -250.88 213.69 C-249.58 208.22 -246.59 206.04 -242 203 C-238.49 201.14 -234.98 199.42 -231.37 197.77 C-225.63 194.75 -221.15 191.34 -219 185 C-218.54 180.48 -218.49 176.47 -220 172.15 C-222.95 162.87 -221.25 152.67 -218.64 143.53 C-215.98 133.9 -215.13 123.9 -214 114 C-214.78 114.61 -215.55 115.21 -216.35 115.84 C-222.35 120.5 -228.39 125.07 -234.56 129.5 C-235.15 129.92 -235.73 130.34 -236.33 130.77 C-239.12 132.77 -241.86 134.59 -245 136 C-236.76 125.88 -227.87 116.56 -216.66 109.78 C-214 108 -214 108 -211.66 105.59 C-208.38 102.4 -204.87 100.3 -200.94 98 C-194.03 93.86 -187.2 89.63 -180.44 85.25 C-180.03 84.99 -180.03 84.99 -177.99 83.68 C-172.43 80.07 -167.18 76.15 -162 72 C-166.53 73.36 -170.36 75.18 -174.44 77.56 C-175.04 77.91 -175.64 78.26 -176.26 78.62 C-178.18 79.74 -180.09 80.87 -182 82 C-182.63 82.37 -183.25 82.74 -183.9 83.12 C-189.55 86.48 -195.19 89.86 -200.77 93.35 C-201.36 93.72 -201.96 94.09 -202.58 94.48 C-204.22 95.5 -205.85 96.53 -207.49 97.57 C-210 99 -210 99 -212 99 C-212.76 79.91 -207.26 62.33 -195.06 47.67 C-190.57 42.23 -186.95 36.75 -183.61 30.56 C-181.19 26.1 -181.19 26.1 -179 25 C-179 27.31 -179 29.62 -179 32 C-173.91 35.06 -169.94 35.42 -164.19 35.5 C-154.48 35.86 -147.1 36.9 -140 44 C-137.75 47.03 -136.49 50.25 -135.12 53.75 C-133.19 58.68 -131.13 63.69 -128 68 C-127.01 68.33 -126.02 68.66 -125 69 C-125.33 68.3 -125.66 67.6 -126 66.88 C-127.1 63.72 -127.23 61.32 -127 58 C-124.72 55.72 -119.23 56.57 -116.09 56.53 C-107.91 56.66 -101.25 59.45 -94 63 C-94.7 67.48 -95.7 71.66 -97 76 C-79.66 73.54 -79.66 73.54 -75.28 67.71 C-70.37 57.3 -75.66 43.34 -79 33 C-79.38 32.13 -79.75 31.27 -80.14 30.38 C-81.29 27.2 -81.34 24.37 -81.38 21 C-81.4 19.8 -81.43 18.61 -81.46 17.38 C-80.92 13.39 -79.8 11.83 -77 9 C-73.47 6.64 -72.16 6.51 -68 7 C-58.41 11.49 -52.65 23.91 -47.98 32.97 C-46.15 36.51 -44.46 38.47 -41.25 40.69 C-39.39 42.14 -39.39 42.14 -38 44 C-37.74 47.08 -37.94 49.99 -38.13 53.07 C-37.95 57.15 -36.52 59.06 -33.67 61.86 C-32 63 -32 63 -29.12 63.44 C-28.42 63.29 -27.72 63.15 -27 63 C-26.81 61.89 -26.63 60.77 -26.44 59.62 C-25.96 58.43 -25.49 57.23 -25 56 C-21.69 54.81 -21.69 54.81 -18 54 C-10.13 49.13 -7.1 40.29 -4 32 C-3.83 31.63 -3.83 31.63 -2.97 29.73 C-1.87 26.64 -1.7 24.13 -1.62 20.86 C-1.59 19.71 -1.55 18.55 -1.52 17.37 C-1.49 16.17 -1.46 14.98 -1.44 13.75 C-1.38 11.37 -1.31 8.99 -1.25 6.61 C-1.23 6.08 -1.23 6.08 -1.17 3.42 C-1 1 -1 1 0 0 Z " fill="#000000" transform="translate(436,118)"/>
<path d="M0 0 C1 2 1 2 0.48 4.37 C-1.51 7.91 -4.28 9.27 -7.75 11.12 C-13.26 14.24 -18.32 17.59 -23.25 21.56 C-23.83 22.03 -24.41 22.5 -25.01 22.98 C-26.14 23.9 -27.28 24.81 -28.41 25.73 C-33.63 29.89 -39.14 33.68 -44.58 37.54 C-44.89 37.76 -44.89 37.76 -46.46 38.87 C-47.65 39.72 -48.85 40.57 -50.05 41.41 C-51.72 42.59 -53.36 43.79 -55 45 C-56.05 45.76 -57.11 46.51 -58.19 47.29 C-61.66 50.64 -62.99 53.73 -64.62 58.19 C-64.92 58.95 -65.22 59.71 -65.52 60.49 C-66.1 61.99 -66.68 63.49 -67.24 65 C-68.16 67.43 -69.14 69.84 -70.12 72.25 C-71.21 74.96 -72.26 77.69 -73.28 80.42 C-73.72 81.6 -74.17 82.78 -74.62 84 C-75.03 85.09 -75.43 86.19 -75.85 87.31 C-77 90 -77 90 -79 92 C-78.6 84.61 -77.03 78.2 -74.56 71.25 C-74.41 70.8 -74.41 70.8 -73.62 68.5 C-73.01 66.76 -72.41 65.02 -71.79 63.28 C-71.15 61.42 -70.54 59.54 -69.94 57.66 C-68.98 54.96 -67.81 52.61 -66.38 50.12 C-66.15 49.73 -66.15 49.73 -65.02 47.76 C-64.69 47.18 -64.35 46.6 -64 46 C-65.75 47.1 -67.5 48.21 -69.25 49.31 C-70.22 49.93 -71.2 50.54 -72.2 51.18 C-74.55 52.7 -76.79 54.29 -79 56 C-79.66 55.67 -80.32 55.34 -81 55 C-83.93 56.17 -86.14 57.81 -88.5 59.88 C-89.11 60.41 -89.71 60.94 -90.34 61.49 C-91.61 62.65 -92.85 63.85 -94.06 65.06 C-96.57 67.57 -99.26 69.76 -102 72 C-102.66 71.67 -103.32 71.34 -104 71 C-97.82 63.85 -91.62 57.66 -84 52 C-91.12 54.37 -96.37 57.93 -102.11 62.66 C-106.07 65.86 -110.18 68.84 -114.3 71.84 C-117.41 74.1 -120.5 76.37 -123.56 78.7 C-124.11 79.12 -124.66 79.54 -125.23 79.97 C-126.72 81.12 -128.22 82.27 -129.71 83.42 C-132 85 -132 85 -134 85 C-134.19 85.6 -134.19 85.6 -135.16 88.62 C-137.35 95.2 -139.94 101.62 -142.5 108.06 C-148.38 122.91 -148.38 122.91 -151 130 C-150.55 129.53 -150.1 129.05 -149.64 128.57 C-138.88 117.51 -125.81 105.14 -110 103 C-110.7 103.69 -111.39 104.39 -112.11 105.11 C-114.1 107.09 -116.08 109.1 -118.04 111.11 C-119.09 112.18 -120.14 113.25 -121.19 114.31 C-121.72 114.86 -122.25 115.41 -122.8 115.98 C-124.16 117.36 -125.58 118.68 -127 120 C-127.66 120 -128.32 120 -129 120 C-129.16 120.5 -129.16 120.5 -130 123 C-131.53 124.51 -131.53 124.51 -133.5 126.12 C-137.63 129.61 -141.38 133.38 -145.12 137.28 C-147 139 -147 139 -149 139 C-149.66 140.32 -150.32 141.64 -151 143 C-151.33 142.34 -151.66 141.68 -152 141 C-150.79 138.65 -150.79 138.65 -149.06 135.94 C-146 131.08 -146 131.08 -146 130 C-149.3 132.64 -152.6 135.28 -156 138 C-156.66 137.67 -157.32 137.34 -158 137 C-157.76 136.8 -157.76 136.8 -156.57 135.79 C-154.68 133.64 -154.34 132.11 -153.81 129.31 C-153.54 127.88 -153.27 126.44 -153 125 C-160.05 127.1 -163.35 130.03 -167.01 136.36 C-167.5 137.27 -167.99 138.19 -168.5 139.12 C-169.02 140.04 -169.55 140.96 -170.09 141.91 C-171.79 144.91 -173.46 147.92 -175 151 C-174.31 150.42 -173.63 149.85 -172.92 149.25 C-172.02 148.51 -171.12 147.76 -170.19 147 C-169.74 146.63 -169.74 146.63 -167.48 144.75 C-165 143 -165 143 -162 143 C-166.58 147.84 -171.33 152.44 -177 156 C-177.66 156 -178.32 156 -179 156 C-179.14 156.4 -179.14 156.4 -179.88 158.44 C-181 161 -181 161 -183 162 C-183 161.34 -183 160.68 -183 160 C-183.99 160.33 -183.99 160.33 -189 162 C-186.74 159.66 -184.72 157.81 -182 156 C-180.89 153.4 -179.91 150.86 -179 148.19 C-177.36 143.48 -175.77 139.19 -173 135 C-174.12 135.58 -175.24 136.15 -176.39 136.75 C-177.87 137.5 -179.34 138.25 -180.81 139 C-181.55 139.38 -182.29 139.76 -183.05 140.16 C-183.76 140.52 -184.47 140.88 -185.21 141.25 C-185.86 141.59 -186.52 141.92 -187.19 142.27 C-189 143 -189 143 -192 143 C-192 143.66 -192 144.32 -192 145 C-193.65 145.33 -195.3 145.66 -197 146 C-196.4 145.44 -195.8 144.89 -195.19 144.31 C-193 142 -193 142 -191.78 139.91 C-189.25 135.77 -186.28 132.02 -183.31 128.19 C-182.71 127.4 -182.1 126.61 -181.47 125.8 C-179.99 123.86 -178.49 121.93 -177 120 C-176.84 120.33 -176.84 120.33 -176 122 C-177.21 124.38 -177.21 124.38 -178.94 127.12 C-179.5 128.04 -180.07 128.95 -180.65 129.88 C-180.87 130.23 -180.87 130.23 -182 132 C-169.99 126.9 -161.67 120.74 -153 111 C-153 115.25 -154.82 117.39 -157 121 C-154.12 120.81 -154.12 120.81 -151 120 C-149.51 117.7 -149.1 115.55 -148.62 112.87 C-147.35 105.75 -145.01 99.57 -142 93 C-141.79 92.54 -141.79 92.54 -140.74 90.23 C-138.34 85.19 -135.78 81.1 -132 77 C-131.67 77.66 -131.34 78.32 -131 79 C-130.34 79 -129.68 79 -129 79 C-129 78.34 -129 77.68 -129 77 C-127.47 75.49 -127.47 75.49 -125.5 73.88 C-124.85 73.34 -124.2 72.8 -123.53 72.24 C-123.03 71.83 -122.52 71.42 -122 71 C-133.23 74.95 -143.85 80.82 -154 87 C-156.31 88.19 -158.62 89.27 -161 90.31 C-164.24 92.14 -165.88 93.98 -168 97 C-166.35 95.68 -164.7 94.36 -163 93 C-162.67 93.16 -162.67 93.16 -161 94 C-160.26 93.4 -159.51 92.8 -158.75 92.19 C-156.53 90.42 -154.28 88.69 -152 87 C-153.5 90.33 -155.43 92.93 -157.75 95.75 C-161.28 100.09 -164.68 104.5 -168 109 C-168 105.8 -167.45 104.58 -166 101.81 C-165.81 101.45 -165.81 101.45 -164.88 99.64 C-164.59 99.1 -164.3 98.56 -164 98 C-174.78 102.44 -181.73 108.07 -189.6 116.53 C-192.52 119.6 -195.76 122.29 -199 125 C-200.33 126.14 -201.67 127.29 -203 128.44 C-203.99 129.28 -204.98 130.13 -206 131 C-201.71 119.58 -192.99 109.74 -183.41 102.35 C-182 101 -182 101 -181.07 99.07 C-179.74 96.49 -178.09 95.11 -175.88 93.25 C-175.15 92.64 -174.43 92.02 -173.68 91.39 C-173.4 91.16 -173.4 91.16 -172 90 C-176.44 90.74 -179.99 92.3 -184.01 94.26 C-184.34 94.38 -184.34 94.38 -186 95 C-186.66 94.67 -187.32 94.34 -188 94 C-177.52 87.96 -167.01 82.45 -155.89 77.69 C-146.77 73.77 -146.77 73.77 -144.31 71.31 C-143.88 70.88 -143.45 70.45 -143 70 C-142.01 70 -141.02 70 -140 70 C-140.16 70.66 -140.16 70.66 -141 74 C-136.2 70.68 -136.2 70.68 -135.19 67.25 C-135.13 66.51 -135.06 65.76 -135 65 C-134.5 65.16 -134.5 65.16 -132 66 C-129 65 -129 65 -126.19 63.5 C-123.01 62 -120.44 61.57 -117 61 C-116.07 60.53 -115.14 60.05 -114.19 59.56 C-110.8 57.9 -107.85 57.29 -104.15 56.72 C-101.34 55.78 -99.95 54.18 -98 52 C-98.78 52.3 -99.55 52.61 -100.35 52.92 C-103.9 54.29 -107.45 55.65 -111 57 C-111.32 57.12 -111.32 57.12 -112.96 57.74 C-114.86 58.46 -116.78 59.17 -118.69 59.88 C-119.85 60.31 -121.01 60.74 -122.2 61.18 C-125 62 -125 62 -127 61 C-120.08 54.88 -113.37 49.96 -105 46 C-109.24 46.47 -113.39 47.05 -117.56 47.94 C-123.04 49.07 -128.54 49.78 -134.08 50.49 C-140.06 51.27 -146.03 52.14 -152 53 C-143.71 44.03 -129.25 41.77 -117.59 40.68 C-110.6 40.55 -103.84 41.64 -97 43 C-98.27 46.8 -99.78 47.49 -103.06 49.69 C-103.98 50.31 -104.9 50.93 -105.85 51.57 C-106.56 52.04 -107.27 52.52 -108 53 C-107.1 52.49 -106.21 51.98 -105.28 51.46 C-94.16 45.28 -82.9 39.99 -70.31 37.69 C-63.84 36.35 -59.6 33.2 -54.36 29.3 C-49.14 25.56 -43.12 22.9 -37 21 C-36.01 21.33 -35.02 21.66 -34 22 C-40.27 26.43 -46.59 30.77 -53 35 C-51.68 34.67 -50.36 34.34 -49 34 C-50.32 35.32 -51.64 36.64 -53 38 C-49.57 36.38 -46.44 34.42 -43.25 32.38 C-42.27 31.74 -41.28 31.11 -40.27 30.46 C-39.89 30.22 -39.89 30.22 -38 29 C-38.99 28.67 -39.98 28.34 -41 28 C-40.13 27.53 -39.27 27.06 -38.38 26.57 C-37.26 25.95 -36.15 25.33 -35 24.69 C-33.89 24.07 -32.77 23.46 -31.62 22.82 C-30.76 22.22 -29.89 21.62 -29 21 C-29 20.01 -29 19.02 -29 18 C-26.88 16.33 -26.88 16.33 -23.93 14.53 C-22.87 13.88 -21.81 13.22 -20.71 12.55 C-19.59 11.87 -18.47 11.2 -17.31 10.5 C-16.21 9.82 -15.11 9.15 -13.97 8.45 C-9.33 5.61 -4.67 2.8 0 0 Z " fill="#088108" transform="translate(222,219)"/>
<path d="M0 0 C0.83 -0.03 1.67 -0.06 2.53 -0.09 C9.69 -0.16 13.73 1.53 19.08 6.46 C25.15 13.5 28.42 18.36 28.16 27.89 C27.01 37.46 23.28 46.12 18.11 54.18 C14.61 59.68 13.32 64.87 12.75 71.31 C8.36 71.31 8.11 71.14 5.19 68.31 C2.07 65.31 2.07 65.31 -1.25 65.31 C-1.58 71.25 -1.91 77.19 -2.25 83.31 C-12.86 78.01 -22.52 62.19 -27.25 51.31 C-28.96 45.65 -29.54 40.64 -29.44 34.75 C-29.44 34.03 -29.44 33.32 -29.44 32.58 C-29.4 28.07 -28.93 23.77 -28.25 19.31 C-28.15 17.79 -28.08 16.27 -28.06 14.75 C-28.05 14.05 -28.03 13.34 -28.02 12.62 C-28.31 9.67 -29.24 7.09 -30.25 4.31 C-28.99 4.11 -27.72 3.9 -26.42 3.69 C-24.76 3.42 -23.1 3.15 -21.44 2.88 C-20.6 2.74 -19.77 2.61 -18.91 2.47 C-18.11 2.33 -17.31 2.2 -16.48 2.07 C-15.74 1.95 -15 1.83 -14.24 1.7 C-9.26 0.73 -5.13 0.06 0 0 Z " fill="#010101" transform="translate(433.25,27.6875)"/>
<path d="M0 0 C2.78 5.56 1.39 13.51 -0.5 19.19 C-0.77 19.98 -1.05 20.78 -1.33 21.6 C-2.4 25.45 -2.19 29.02 -2 33 C-1.26 32.71 -0.51 32.42 0.25 32.12 C11.56 28.73 24.74 26.71 36 31 C36 31.33 36 31.66 36 32 C35.66 32 35.66 32 33.92 32.02 C12.24 32.47 -10.57 36.64 -27 52 C-27.49 52.45 -27.97 52.89 -28.48 53.35 C-38.18 62.31 -45.01 72.27 -51.72 83.58 C-58.06 94.22 -58.06 94.22 -61 97 C-61.99 97 -62.98 97 -64 97 C-63.77 96.49 -63.54 95.98 -63.3 95.45 C-62.19 92.97 -61.09 90.49 -60 88 C-59.6 87.1 -59.21 86.19 -58.8 85.26 C-57.48 82.19 -56.24 79.1 -55 76 C-54.54 74.9 -54.08 73.8 -53.61 72.67 C-49.98 63.19 -49.42 54.42 -49.16 44.32 C-48.82 30.6 -47.49 16.12 -37.42 5.88 C-26.94 -2.27 -12.49 -0.44 0 0 Z " fill="#030303" transform="translate(333,0)"/>
<path d="M0 0 C0.66 0.33 1.32 0.66 2 1 C1.05 2.01 0.09 3 -0.88 4 C-1.41 4.56 -1.94 5.11 -2.49 5.69 C-4 7 -4 7 -6 7 C-6 7.66 -6 8.32 -6 9 C-7.32 9 -8.64 9 -10 9 C-16.04 15.75 -19.03 24.6 -22 33 C-22.35 33.86 -22.71 34.71 -23.07 35.6 C-24.24 38.62 -24.82 41.64 -25.44 44.82 C-26.04 47.16 -26.67 48.98 -28 51 C-31.62 51.75 -31.62 51.75 -35 52 C-33.68 49.36 -32.36 46.72 -31 44 C-31.33 44 -31.66 44 -32 44 C-33.14 45.2 -34.27 46.4 -35.39 47.61 C-42.55 55.25 -50.29 59.17 -60 63 C-59.8 62.64 -59.8 62.64 -58.79 60.84 C-53.94 52.06 -53.94 52.06 -52.38 48.19 C-49.87 42.38 -46.42 38.42 -42 34 C-37.76 28.84 -33.83 23.46 -30 18 C-32.64 20.64 -35.28 23.28 -38 26 C-38.66 25.34 -39.32 24.68 -40 24 C-41.65 25.32 -43.3 26.64 -45 28 C-45.66 27.67 -46.32 27.34 -47 27 C-40.04 19.5 -40.04 19.5 -35 18 C-32.81 16.97 -30.76 15.85 -28.68 14.6 C-24.38 12.04 -19.93 9.76 -15.5 7.44 C-14.56 6.94 -13.63 6.45 -12.66 5.94 C-11.75 5.46 -10.84 4.99 -9.91 4.5 C-9.08 4.06 -8.26 3.63 -7.42 3.19 C-4.97 1.98 -2.59 0.87 0 0 Z " fill="#869C89" transform="translate(99,289)"/>
<path d="M0 0 C1.56 1.12 1.56 1.12 2.56 3.12 C3.57 12.05 1.27 17.89 -4.19 24.81 C-8.52 29.57 -12.88 32.88 -19.38 33.5 C-22.44 33.12 -22.44 33.12 -23.44 32.12 C-23.89 29.43 -24.21 26.84 -24.44 24.12 C-24.53 23.16 -24.62 22.2 -24.71 21.21 C-25.05 14.8 -24.61 10.69 -20.27 5.82 C-14.12 0.15 -8.42 -3.02 0 0 Z " fill="#030403" transform="translate(318.4375,115.875)"/>
<path d="M0 0 C1 2 1 2 0.48 4.37 C-1.51 7.91 -4.28 9.27 -7.75 11.12 C-13.26 14.24 -18.32 17.59 -23.25 21.56 C-23.54 21.8 -23.54 21.8 -25.01 22.98 C-26.14 23.9 -27.28 24.81 -28.41 25.73 C-33.63 29.89 -39.14 33.68 -44.58 37.54 C-44.89 37.76 -44.89 37.76 -46.46 38.87 C-47.65 39.72 -48.85 40.57 -50.05 41.41 C-51.72 42.59 -53.36 43.79 -55 45 C-56.05 45.76 -57.11 46.51 -58.19 47.29 C-61.66 50.64 -62.99 53.73 -64.62 58.19 C-64.92 58.95 -65.22 59.71 -65.52 60.49 C-66.1 61.99 -66.68 63.49 -67.24 65 C-68.16 67.43 -69.14 69.84 -70.12 72.25 C-71.21 74.96 -72.26 77.69 -73.28 80.42 C-73.72 81.6 -74.17 82.78 -74.62 84 C-75.03 85.09 -75.43 86.19 -75.85 87.31 C-77 90 -77 90 -79 92 C-78.6 84.61 -77.03 78.2 -74.56 71.25 C-74.25 70.34 -73.94 69.44 -73.62 68.5 C-73.01 66.76 -72.41 65.02 -71.79 63.28 C-71.15 61.42 -70.54 59.54 -69.94 57.66 C-68.98 54.96 -67.81 52.61 -66.38 50.12 C-65.93 49.34 -65.48 48.56 -65.02 47.76 C-64.69 47.18 -64.35 46.6 -64 46 C-65.75 47.1 -67.5 48.21 -69.25 49.31 C-69.74 49.62 -69.74 49.62 -72.2 51.18 C-74.55 52.7 -76.79 54.29 -79 56 C-79.66 55.67 -80.32 55.34 -81 55 C-77.64 50.21 -73.55 47.23 -68.81 43.94 C-68.1 43.42 -67.38 42.9 -66.64 42.37 C-61.78 38.96 -56.72 35.75 -51 34 C-50.34 34.33 -49.68 34.66 -49 35 C-50.32 35.99 -51.64 36.98 -53 38 C-49.57 36.38 -46.44 34.42 -43.25 32.38 C-42.27 31.74 -41.28 31.11 -40.27 30.46 C-39.52 29.98 -38.77 29.5 -38 29 C-38.99 28.67 -39.98 28.34 -41 28 C-40.57 27.76 -40.57 27.76 -38.38 26.57 C-37.26 25.95 -36.15 25.33 -35 24.69 C-33.89 24.07 -32.77 23.46 -31.62 22.82 C-30.76 22.22 -29.89 21.62 -29 21 C-29 20.01 -29 19.02 -29 18 C-26.88 16.33 -26.88 16.33 -23.93 14.53 C-22.87 13.88 -21.81 13.22 -20.71 12.55 C-19.59 11.87 -18.47 11.2 -17.31 10.5 C-16.21 9.82 -15.11 9.15 -13.97 8.45 C-9.33 5.61 -4.67 2.8 0 0 Z " fill="#098109" transform="translate(222,219)"/>
<path d="M0 0 C0 7.57 -6.86 15.43 -10.87 21.64 C-13.72 26.13 -16.45 30.69 -19.19 35.25 C-19.7 36.1 -20.21 36.95 -20.74 37.83 C-23.55 42.53 -26.31 47.24 -29 52 C-30.57 48.86 -29.04 46.07 -28.06 42.88 C-27.38 40.61 -26.7 38.34 -26 36 C-27.65 38.31 -27.65 38.31 -36 50 C-36 45.22 -33.35 41.67 -31.06 37.56 C-30.81 37.11 -30.81 37.11 -29.55 34.83 C-25.55 27.74 -21.2 21.28 -16 15 C-15.41 14.26 -14.81 13.51 -14.2 12.75 C-10.04 7.71 -5.28 3.83 0 0 Z " fill="#098109" transform="translate(142,293)"/>
<path d="M0 0 C-11.2 10.38 -24.98 17.89 -37.98 25.77 C-44.6 29.79 -50.58 33.43 -56 39 C-58.6 40.78 -61.28 42.41 -64 44 C-64.66 43.34 -65.32 42.68 -66 42 C-65.16 41.62 -64.31 41.24 -63.45 40.86 C-54.6 36.41 -54.6 36.41 -52.76 32.09 C-52.3 29.36 -52.02 26.76 -52 24 C-51.67 24.99 -51.34 25.98 -51 27 C-44.6 23.29 -38.22 19.55 -31.88 15.75 C-31.26 15.38 -30.65 15.02 -30.02 14.64 C-26.39 12.46 -22.78 10.25 -19.18 8.02 C-18.78 7.77 -18.78 7.77 -16.73 6.5 C-15.15 5.52 -13.57 4.53 -11.99 3.54 C-11.27 3.1 -10.55 2.65 -9.8 2.19 C-9.16 1.79 -8.53 1.39 -7.87 0.98 C-4.98 -0.53 -3.01 -1.5 0 0 Z " fill="#808F83" transform="translate(275,190)"/>
<path d="M0 0 C0 1.32 0 2.64 0 4 C-7.93 9.23 -17.48 12.02 -27 11 C-29.5 9.5 -29.5 9.5 -31 8 C-30.65 5.52 -30.41 4.33 -28.42 2.73 C-19.37 -1.26 -9.68 -0.37 0 0 Z " fill="#080908" transform="translate(320,317)"/>
<path d="M0 0 C-2.97 1.32 -5.94 2.64 -9 4 C-8.84 4.33 -8.84 4.33 -8 6 C-9.16 6.26 -10.33 6.51 -11.53 6.77 C-15.87 7.86 -19.61 9.56 -23.56 11.62 C-23.9 11.8 -23.9 11.8 -25.62 12.67 C-29.21 14.51 -32.76 16.41 -36.3 18.34 C-36.99 18.71 -37.67 19.08 -38.37 19.47 C-39.69 20.19 -41 20.91 -42.3 21.65 C-43.84 22.49 -45.42 23.25 -47 24 C-47.66 23.67 -48.32 23.34 -49 23 C-37.07 11.37 -17.79 -4.45 0 0 Z " fill="#078107" transform="translate(86,283)"/>
<path d="M0 0 C0 0.66 0 1.32 0 2 C0.99 1.67 1.98 1.34 3 1 C3 2.32 3 3.64 3 5 C2.01 5.33 1.02 5.66 0 6 C0 5.34 0 4.68 0 4 C-0.66 3.67 -1.32 3.34 -2 3 C-1.92 3.74 -1.84 4.49 -1.75 5.25 C-2 8 -2 8 -3.88 10.31 C-6 12 -6 12 -8 12 C-7.67 10.68 -7.34 9.36 -7 8 C-9.4 9.4 -11.71 10.77 -13.9 12.48 C-16 14 -17.95 14.98 -20.34 15.97 C-21.15 16.31 -21.97 16.66 -22.81 17.01 C-23.66 17.36 -24.5 17.7 -25.38 18.06 C-26.21 18.41 -27.05 18.77 -27.91 19.13 C-32.23 20.92 -36.54 22.6 -41 24 C-40.07 20.07 -39.14 19.09 -35.66 16.9 C-34.28 16.23 -32.89 15.58 -31.5 14.94 C-30.78 14.59 -30.06 14.25 -29.32 13.89 C-24.61 11.66 -19.84 9.62 -14.92 7.89 C-12.78 6.9 -11.62 5.69 -10 4 C-7.31 2.81 -7.31 2.81 -5 2 C-7.31 2 -9.62 2 -12 2 C-8.1 -0.6 -4.53 -0.15 0 0 Z " fill="#809A83" transform="translate(89,281)"/>
<path d="M0 0 C-4.29 2.31 -8.58 4.62 -13 7 C-12.01 7.33 -11.02 7.66 -10 8 C-10.59 8.39 -11.18 8.77 -11.79 9.17 C-15.29 11.48 -18.67 13.72 -21.88 16.44 C-22.58 16.95 -23.28 17.47 -24 18 C-24.99 17.67 -25.98 17.34 -27 17 C-26.01 16.01 -25.02 15.02 -24 14 C-25.32 14.33 -26.64 14.66 -28 15 C-23.92 10.38 -18.73 7.65 -13.49 4.54 C-12.79 4.11 -12.08 3.68 -11.36 3.24 C-10.71 2.86 -10.07 2.48 -9.41 2.08 C-8.94 1.72 -8.48 1.37 -8 1 C-8 0.34 -8 -0.32 -8 -1 C-4.23 -2.35 -3.97 -1.99 0 0 Z " fill="#7A997C" transform="translate(195,240)"/>
<path d="M0 0 C0 4.04 -1.52 5.14 -4.12 8.19 C-7.91 12.69 -11.53 17.25 -15 22 C-15 18.8 -14.45 17.58 -13 14.81 C-12.63 14.1 -12.26 13.38 -11.88 12.64 C-11.59 12.1 -11.3 11.56 -11 11 C-11.54 11.3 -12.09 11.6 -12.64 11.91 C-13.36 12.29 -14.08 12.67 -14.81 13.06 C-15.52 13.45 -16.23 13.83 -16.96 14.22 C-19 15 -19 15 -22 14 C-17.52 10.27 -13.4 8.1 -8 6 C-7.67 6.33 -7.34 6.66 -7 7 C-4.69 4.69 -2.38 2.38 0 0 Z " fill="#1B841B" transform="translate(69,306)"/>
<path d="M0 0 C0 0.66 0 1.32 0 2 C0.99 1.67 1.98 1.34 3 1 C3 2.32 3 3.64 3 5 C2.01 5.33 1.02 5.66 0 6 C0 5.34 0 4.68 0 4 C-0.66 3.67 -1.32 3.34 -2 3 C-1.96 3.37 -1.96 3.37 -1.75 5.25 C-2 8 -2 8 -3.88 10.31 C-6 12 -6 12 -8 12 C-7.67 10.68 -7.34 9.36 -7 8 C-8.32 8.33 -9.64 8.66 -11 9 C-11 8.34 -11 7.68 -11 7 C-11.66 6.67 -12.32 6.34 -13 6 C-10.36 4.68 -7.72 3.36 -5 2 C-7.31 2 -9.62 2 -12 2 C-8.1 -0.6 -4.53 -0.15 0 0 Z " fill="#6B956D" transform="translate(89,281)"/>
<path d="M0 0 C0.66 0.33 1.32 0.66 2 1 C1.25 3.94 1.25 3.94 0 7 C-2.12 7.88 -2.12 7.88 -4 8 C-4.33 7.34 -4.66 6.68 -5 6 C-9.7 9.39 -13.95 12.84 -18 17 C-19.31 18.03 -20.64 19.04 -22 20 C-22.66 19.67 -23.32 19.34 -24 19 C-20.59 14.08 -16.31 11.14 -11.44 7.81 C-10.67 7.28 -9.9 6.75 -9.11 6.2 C-6.09 4.1 -3.06 2.04 0 0 Z " fill="#468D47" transform="translate(165,255)"/>
<path d="M0 0 C3.72 0.39 6.75 1.29 10.12 2.81 C18.31 6.26 27.3 7.43 36 9 C36 9.33 36 9.66 36 10 C22.59 10.73 11.68 7.5 0 1 C0 0.67 0 0.34 0 0 Z " fill="#78857A" transform="translate(306,191)"/>
<path d="M0 0 C0.66 0.33 1.32 0.66 2 1 C-2.47 5.47 -6.28 6.86 -12.38 8.31 C-15 9 -15 9 -18.38 10.69 C-21.19 12.09 -22.9 12.27 -26 12 C-26.33 11.34 -26.66 10.68 -27 10 C-25.81 9.61 -24.61 9.23 -23.38 8.83 C-8.89 4.09 -8.89 4.09 -3.5 1.56 C-2.34 1.05 -1.19 0.53 0 0 Z " fill="#769878" transform="translate(124,270)"/>
<path d="M0 0 C0.66 0 1.32 0 2 0 C1.67 0.99 1.34 1.98 1 3 C0.67 2.01 0.34 1.02 0 0 Z M-3 4 C-2.34 4.33 -1.68 4.66 -1 5 C-3.12 9.02 -5.39 11.27 -9 14 C-9.64 14.64 -10.28 15.28 -10.94 15.94 C-13.49 18.49 -16.21 20.72 -19 23 C-19.66 22.67 -20.32 22.34 -21 22 C-15.31 15.56 -9.66 9.45 -3 4 Z " fill="#128213" transform="translate(139,268)"/>
<path d="M0 0 C2.64 0.33 5.28 0.66 8 1 C2.28 6.88 -1.72 10.04 -10 11 C-10.66 10.67 -11.32 10.34 -12 10 C-11.13 9.53 -10.27 9.06 -9.38 8.57 C-8.26 7.95 -7.15 7.33 -6 6.69 C-4.89 6.07 -3.77 5.46 -2.62 4.82 C-1.76 4.22 -0.89 3.62 0 3 C0 2.01 0 1.02 0 0 Z " fill="#2D882E" transform="translate(193,237)"/>
<path d="M0 0 C0.25 2.81 0.25 2.81 0 6 C-2.22 8.47 -3.44 8.96 -6.75 9.19 C-7.49 9.13 -8.24 9.06 -9 9 C-8.65 5.86 -8.16 4.21 -6.19 1.69 C-4 0 -4 0 0 0 Z " fill="#818F84" transform="translate(371,136)"/>
<path d="M0 0 C1.33 3.99 0.17 6.76 -1.06 10.62 C-1.29 11.34 -1.51 12.05 -1.74 12.79 C-3.63 18.51 -6.2 23.3 -10 28 C-10.33 27.34 -10.66 26.68 -11 26 C-10.01 23.26 -8.96 20.61 -7.81 17.94 C-7.49 17.17 -7.17 16.4 -6.83 15.62 C-4.62 10.38 -2.35 5.17 0 0 Z " fill="#148315" transform="translate(65,361)"/>
<path d="M0 0 C0 6.7 -6.17 13.94 -10.54 18.86 C-12.65 20.96 -14.78 23.01 -17 25 C-17 20.7 -14.48 18.49 -11.88 15.31 C-10.87 14.06 -9.86 12.8 -8.85 11.54 C-8.36 10.94 -7.87 10.33 -7.36 9.7 C-4.83 6.53 -2.42 3.27 0 0 Z " fill="#1E841F" transform="translate(101,348)"/>
<path d="M0 0 C-19.17 10.51 -19.17 10.51 -28 8 C-26.85 7.6 -25.71 7.2 -24.53 6.79 C-23 6.26 -21.47 5.72 -19.94 5.19 C-19.19 4.93 -18.43 4.67 -17.66 4.4 C-14.09 3.14 -10.62 1.85 -7.19 0.24 C-4.08 -0.97 -2.99 -1.32 0 0 Z " fill="#278628" transform="translate(29,317)"/>
<path d="M0 0 C0.66 0 1.32 0 2 0 C0.87 3.4 -0.19 4.29 -2.88 6.56 C-3.57 7.16 -4.27 7.76 -4.99 8.38 C-7 10 -7 10 -10 12 C-10.33 11.34 -10.66 10.68 -11 10 C-12.65 11.32 -14.3 12.64 -16 14 C-16.66 13.67 -17.32 13.34 -18 13 C-11.04 5.5 -11.04 5.5 -6 4 C-3.44 2.83 -2.01 2.01 0 0 Z " fill="#759877" transform="translate(70,303)"/>
<path d="M0 0 C0.33 0.66 0.66 1.32 1 2 C-1.65 8.18 -4.91 13.6 -10 18 C-10.56 18.6 -11.11 19.2 -11.69 19.81 C-13 21 -13 21 -15 21 C-13.61 18.01 -11.98 15.5 -9.96 12.89 C-9.38 12.14 -8.8 11.38 -8.2 10.61 C-7.6 9.83 -7 9.05 -6.38 8.25 C-5.76 7.46 -5.15 6.66 -4.52 5.85 C-3.02 3.9 -1.51 1.95 0 0 Z " fill="#168317" transform="translate(45,339)"/>
<path d="M0 0 C0.66 0.33 1.32 0.66 2 1 C-10.8 14.66 -10.8 14.66 -18 17 C-18.99 16.67 -19.98 16.34 -21 16 C-20.32 15.52 -19.64 15.03 -18.95 14.53 C-12.47 9.87 -6.18 5.04 0 0 Z " fill="#228522" transform="translate(73,315)"/>
<path d="M0 0 C2.38 -0.19 2.38 -0.19 5 0 C7.15 3.23 7.2 4.28 7 8 C5.02 8 3.04 8 1 8 C-0.43 5.65 -1.09 4.52 -0.62 1.75 C-0.42 1.17 -0.21 0.59 0 0 Z " fill="#829185" transform="translate(302,131)"/>
<path d="M0 0 C0.66 0.33 1.32 0.66 2 1 C-4.1 7.8 -10.59 13.25 -19 17 C-19.66 16.67 -20.32 16.34 -21 16 C-20.54 15.66 -20.08 15.31 -19.61 14.96 C-17.51 13.39 -15.41 11.82 -13.31 10.25 C-12.95 9.98 -12.95 9.98 -11.13 8.62 C-7.37 5.8 -3.64 2.96 0 0 Z " fill="#1A841A" transform="translate(108,298)"/>
<path d="M0 0 C0.33 0 0.66 0 1 0 C1.39 5.64 0.25 9.48 -2.38 14.38 C-2.69 15 -3.01 15.63 -3.34 16.28 C-5.71 20.85 -5.71 20.85 -8 22 C-6.15 14.21 -3.52 7.19 0 0 Z " fill="#178317" transform="translate(137,327)"/>
<path d="M0 0 C0.66 0.33 1.32 0.66 2 1 C-2.59 6.47 -7.12 11.86 -13 16 C-13.66 15.67 -14.32 15.34 -15 15 C-14.55 14.63 -14.09 14.26 -13.62 13.88 C-11.53 11.46 -10.88 9.05 -10 6 C-9.34 6.33 -8.68 6.66 -8 7 C-5.18 4.79 -2.47 2.6 0 0 Z " fill="#1D841D" transform="translate(79,341)"/>
<path d="M0 0 C6.17 6 9.41 9.36 10 18 C7.22 15.53 5.63 12.82 3.88 9.56 C3.36 8.62 2.84 7.67 2.3 6.69 C1.2 4.41 0.48 2.47 0 0 Z " fill="#6E7A70" transform="translate(287,176)"/>
<path d="M0 0 C0.66 0.33 1.32 0.66 2 1 C-3.21 6.64 -7.76 11.21 -15 14 C-15.66 13.67 -16.32 13.34 -17 13 C-14.92 11.4 -12.83 9.79 -10.75 8.19 C-10.16 7.74 -9.58 7.28 -8.97 6.82 C-6 4.53 -3.01 2.24 0 0 Z " fill="#138213" transform="translate(143,281)"/>
<path d="M0 0 C0.66 0.33 1.32 0.66 2 1 C-3.46 7.16 -9.29 11.9 -17 15 C-17.66 14.67 -18.32 14.34 -19 14 C-18.05 13.32 -17.09 12.65 -16.11 11.95 C-14.85 11.05 -13.58 10.15 -12.31 9.25 C-11.69 8.81 -11.06 8.36 -10.42 7.91 C-6.86 5.37 -3.38 2.77 0 0 Z " fill="#118311" transform="translate(179,263)"/>
<path d="M0 0 C1.75 3.05 2 4.04 1.81 7.75 C0.14 13.89 -5.92 16.81 -11 20 C-11.99 19.34 -12.98 18.68 -14 18 C-13.16 17.62 -12.31 17.24 -11.45 16.86 C-2.6 12.41 -2.6 12.41 -0.76 8.09 C-0.3 5.36 -0.02 2.76 0 0 Z " fill="#69846B" transform="translate(223,214)"/>
<path d="M0 0 C0.66 0.33 1.32 0.66 2 1 C1.05 2.01 0.09 3 -0.88 4 C-1.41 4.56 -1.94 5.11 -2.49 5.69 C-4 7 -4 7 -6 7 C-6 7.66 -6 8.32 -6 9 C-6.66 9 -7.32 9 -8 9 C-8.33 7.35 -8.66 5.7 -9 4 C-7.55 3.3 -6.09 2.62 -4.62 1.94 C-4.22 1.75 -4.22 1.75 -2.16 0.78 C-1.45 0.52 -0.74 0.26 0 0 Z " fill="#6B956D" transform="translate(99,289)"/>
<path d="M0 0 C8.88 8.63 8.88 8.63 9.25 12.81 C9.17 13.53 9.08 14.26 9 15 C6.56 12.71 4.68 10.27 2.81 7.5 C2.28 6.73 1.75 5.95 1.21 5.16 C0 3 0 3 0 0 Z " fill="#6C786E" transform="translate(280,184)"/>
<path d="M0 0 C2.06 0.44 2.06 0.44 4 1 C3.67 2.65 3.34 4.3 3 6 C2.01 5.83 2.01 5.83 -3 5 C-1.12 1.12 -1.12 1.12 0 0 Z " fill="#060707" transform="translate(312,329)"/>
<path d="M0 0 C0.62 0.02 0.62 0.02 3.75 0.12 C3.75 0.79 3.75 1.44 3.75 2.12 C4.74 1.8 5.73 1.46 6.75 1.12 C6.75 2.44 6.75 3.76 6.75 5.12 C5.76 5.45 4.77 5.79 3.75 6.12 C3.75 5.46 3.75 4.81 3.75 4.12 C3.09 3.8 2.43 3.46 1.75 3.12 C1.42 3.79 1.09 4.44 0.75 5.12 C0.42 4.46 0.09 3.81 -0.25 3.12 C0.08 2.46 0.41 1.81 0.75 1.12 C-0.73 1.29 -0.73 1.29 -8.25 2.12 C-4.64 0.32 -3.71 -0.12 0 0 Z " fill="#428C43" transform="translate(85.25,280.875)"/>
<path d="M0 0 C0.66 0.33 1.32 0.66 2 1 C-1.7 4.93 -5.55 7.95 -10 11 C-10.66 10.67 -11.32 10.34 -12 10 C-8.04 6.7 -4.08 3.4 0 0 Z " fill="#6B956D" transform="translate(141,272)"/>
<path d="M0 0 C0.66 0.33 1.32 0.66 2 1 C-0.4 4.59 -2.06 5.14 -6 6.75 C-7.07 7.2 -8.14 7.65 -9.25 8.11 C-12 9 -12 9 -14 8 C-11.71 6.64 -9.42 5.28 -7.12 3.94 C-6.47 3.55 -5.82 3.16 -5.15 2.76 C-3.47 1.78 -1.74 0.88 0 0 Z " fill="#228522" transform="translate(48,305)"/>
<path d="M0 0 C0.99 0.66 1.98 1.32 3 2 C1.35 3.98 -0.3 5.96 -2 8 C-2.99 7.67 -3.98 7.34 -5 7 C-4.01 6.01 -3.02 5.02 -2 4 C-3.32 4.33 -4.64 4.66 -6 5 C-2.25 1.12 -2.25 1.12 0 0 Z " fill="#539054" transform="translate(173,250)"/>
<path d="M0 0 C1.32 0.66 2.64 1.32 4 2 C2.21 3.03 0.42 4.05 -1.38 5.06 C-1.87 5.35 -1.87 5.35 -4.4 6.79 C-5.26 7.19 -6.12 7.59 -7 8 C-7.66 7.67 -8.32 7.34 -9 7 C-6.03 4.69 -3.06 2.38 0 0 Z " fill="#759877" transform="translate(122,265)"/>
<path d="M0 0 C0.99 0 1.98 0 3 0 C1.55 4.11 -0.51 7.43 -3 11 C-3.33 10.34 -3.66 9.68 -4 9 C-3.22 6.84 -3.22 6.84 -2.06 4.38 C-1.68 3.56 -1.3 2.74 -0.91 1.9 C-0.61 1.27 -0.31 0.65 0 0 Z " fill="#318932" transform="translate(58,378)"/>
<path d="M0 0 C0.33 0 0.66 0 1 0 C1.18 4.55 1 7.88 -1 12 C-1.66 11.01 -2.32 10.02 -3 9 C-2.54 6.74 -2.54 6.74 -1.62 4.31 C-1.33 3.5 -1.03 2.7 -0.73 1.86 C-0.49 1.25 -0.25 0.63 0 0 Z " fill="#2C882D" transform="translate(137,327)"/>
<path d="M0 0 C1.32 0.33 2.64 0.66 4 1 C4 2.32 4 3.64 4 5 C2.68 5.33 1.36 5.66 0 6 C0 4.02 0 2.04 0 0 Z " fill="#839286" transform="translate(445,164)"/>
<path d="M0 0 C0.66 0.33 1.32 0.66 2 1 C2 1.66 2 2.32 2 3 C0.35 3.5 0.35 3.5 -8 6 C-8.33 5.34 -8.66 4.68 -9 4 C-6.06 2.48 -3.13 1.07 0 0 Z " fill="#258625" transform="translate(118,270)"/>
<path d="M0 0 C0 0.66 0 1.32 0 2 C0.66 2.66 1.32 3.32 2 4 C1.34 4.66 0.68 5.32 0 6 C0 5.34 0 4.68 0 4 C-1.32 4.33 -2.64 4.66 -4 5 C-4 4.34 -4 3.68 -4 3 C-4.66 2.67 -5.32 2.34 -6 2 C-3 0 -3 0 0 0 Z " fill="#3D8B3F" transform="translate(82,285)"/>
<path d="M0 0 C0.66 0.33 1.32 0.66 2 1 C0.71 3.87 -0.57 5.98 -3 8 C-3.66 8 -4.32 8 -5 8 C-3.63 5.05 -2.01 2.56 0 0 Z " fill="#288628" transform="translate(35,352)"/>
<path d="M0 0 C0.66 0.33 1.32 0.66 2 1 C1.81 2.88 1.81 2.88 1 5 C-1.56 6.25 -1.56 6.25 -4 7 C-4 4 -4 4 -2 1.81 C-1.34 1.21 -0.68 0.62 0 0 Z " fill="#829B85" transform="translate(178,247)"/>
<path d="M0 0 C0.66 0.66 1.32 1.32 2 2 C1.01 2.82 1.01 2.82 -4 7 C-4.66 6.67 -5.32 6.34 -6 6 C-4.02 4.02 -2.04 2.04 0 0 Z " fill="#0A0B0A" transform="translate(197,247)"/>
<path d="M0 0 C3.95 0.55 7.35 1.39 11 3 C10.67 3.66 10.34 4.32 10 5 C8.52 4.55 7.04 4.09 5.56 3.62 C4.74 3.37 3.92 3.11 3.07 2.85 C1 2 1 2 0 0 Z " fill="#636E65" transform="translate(306,191)"/>
<path d="M0 0 C-1.44 3.81 -3.33 5.3 -7 7 C-7.99 6.67 -8.98 6.34 -10 6 C-8.71 4.99 -7.42 4 -6.12 3 C-5.41 2.44 -4.69 1.89 -3.95 1.31 C-2 0 -2 0 0 0 Z " fill="#0F820F" transform="translate(62,325)"/>
<path d="M0 0 C0.33 0.66 0.66 1.32 1 2 C3.06 2.62 3.06 2.62 5 3 C4.01 3 3.02 3 2 3 C2.33 4.32 2.66 5.64 3 7 C2.01 7 1.02 7 0 7 C-1.12 2.25 -1.12 2.25 0 0 Z " fill="#242825" transform="translate(307,305)"/>
<path d="M0 0 C0.33 0.66 0.66 1.32 1 2 C1.66 2 2.32 2 3 2 C1.25 7.75 1.25 7.75 -1 10 C-0.67 6.7 -0.34 3.4 0 0 Z " fill="#298729" transform="translate(144,301)"/>
<path d="M0 0 C0.99 0.66 1.98 1.32 3 2 C2.01 2.82 2.01 2.82 -3 7 C-3.66 6.67 -4.32 6.34 -5 6 C-2.25 1.12 -2.25 1.12 0 0 Z " fill="#5C925E" transform="translate(54,327)"/>
<path d="M0 0 C0.66 0.33 1.32 0.66 2 1 C-4.45 5.09 -4.45 5.09 -7.23 4.62 C-7.82 4.42 -8.4 4.21 -9 4 C-7.55 3.3 -6.09 2.62 -4.62 1.94 C-4.22 1.75 -4.22 1.75 -2.16 0.78 C-1.45 0.52 -0.74 0.26 0 0 Z " fill="#4D8E4F" transform="translate(190,243)"/>
<path d="M0 0 C0.33 0.66 0.66 1.32 1 2 C1.66 2.33 2.32 2.66 3 3 C1.68 5.31 0.36 7.62 -1 10 C-2.27 7.45 -1.8 6.57 -1.06 3.88 C-0.87 3.15 -0.67 2.43 -0.47 1.68 C-0.32 1.13 -0.16 0.57 0 0 Z " fill="#2A872B" transform="translate(114,335)"/>
<path d="M0 0 C0.66 0.33 1.32 0.66 2 1 C0.02 3.31 -1.96 5.62 -4 8 C-4.99 7.67 -5.98 7.34 -7 7 C-4.69 4.69 -2.38 2.38 0 0 Z " fill="#2B872B" transform="translate(47,311)"/>
<path d="M0 0 C0.66 0 1.32 0 2 0 C0.67 4 -1.5 4.84 -5 7 C-5.66 6.67 -6.32 6.34 -7 6 C-5.73 3.46 -4.5 3.21 -2 2 C-1.34 1.34 -0.68 0.68 0 0 Z " fill="#5E9260" transform="translate(70,303)"/>
<path d="M0 0 C0 0.66 0 1.32 0 2 C-2.31 2.33 -4.62 2.66 -7 3 C-7.33 2.34 -7.66 1.68 -8 1 C-2.25 -1.12 -2.25 -1.12 0 0 Z " fill="#539054" transform="translate(105,279)"/>
<path d="M0 0 C-0.33 0.99 -0.66 1.98 -1 3 C-3.31 3.33 -5.62 3.66 -8 4 C-5.57 1.34 -3.76 0 0 0 Z " fill="#048004" transform="translate(18,320)"/>
<path d="M0 0 C0.66 0.33 1.32 0.66 2 1 C2 2.98 2 4.96 2 7 C1.34 7 0.68 7 0 7 C-0.38 5.01 -0.71 3.01 -1 1 C-0.67 0.67 -0.34 0.34 0 0 Z " fill="#616C63" transform="translate(454,176)"/>
</g>
<g font-family="'Segoe UI', Helvetica, Arial, sans-serif">
<text x="44" y="58" font-size="12" letter-spacing="3" fill="#2f3d34">FULL-STACK DEVELOPER</text>
<text x="44" y="96" font-size="29" font-weight="700" fill="#0d110f">Meziti Rayane Aymane</text>
<rect x="44" y="110" width="44" height="3" rx="1.5" fill="#0d110f"/>
<text x="44" y="151" font-size="9.5" letter-spacing="1.1" font-weight="600" fill="#2f3d34">BACKEND</text>
<rect x="124" y="134" width="95" height="26" rx="13" fill="#0d110f"/>
<g transform="translate(136 140) scale(0.583)"><path d="M11.998,24c-0.321,0-0.641-0.084-0.922-0.247l-2.936-1.737c-0.438-0.245-0.224-0.332-0.08-0.383 c0.585-0.203,0.703-0.25,1.328-0.604c0.065-0.037,0.151-0.023,0.218,0.017l2.256,1.339c0.082,0.045,0.197,0.045,0.272,0l8.795-5.076 c0.082-0.047,0.134-0.141,0.134-0.238V6.921c0-0.099-0.053-0.192-0.137-0.242l-8.791-5.072c-0.081-0.047-0.189-0.047-0.271,0 L3.075,6.68C2.99,6.729,2.936,6.825,2.936,6.921v10.15c0,0.097,0.054,0.189,0.139,0.235l2.409,1.392 c1.307,0.654,2.108-0.116,2.108-0.89V7.787c0-0.142,0.114-0.253,0.256-0.253h1.115c0.139,0,0.255,0.112,0.255,0.253v10.021 c0,1.745-0.95,2.745-2.604,2.745c-0.508,0-0.909,0-2.026-0.551L2.28,18.675c-0.57-0.329-0.922-0.945-0.922-1.604V6.921 c0-0.659,0.353-1.275,0.922-1.603l8.795-5.082c0.557-0.315,1.296-0.315,1.848,0l8.794,5.082c0.57,0.329,0.924,0.944,0.924,1.603 v10.15c0,0.659-0.354,1.273-0.924,1.604l-8.794,5.078C12.643,23.916,12.324,24,11.998,24z M19.099,13.993 c0-1.9-1.284-2.406-3.987-2.763c-2.731-0.361-3.009-0.548-3.009-1.187c0-0.528,0.235-1.233,2.258-1.233 c1.807,0,2.473,0.389,2.747,1.607c0.024,0.115,0.129,0.199,0.247,0.199h1.141c0.071,0,0.138-0.031,0.186-0.081 c0.048-0.054,0.074-0.123,0.067-0.196c-0.177-2.098-1.571-3.076-4.388-3.076c-2.508,0-4.004,1.058-4.004,2.833 c0,1.925,1.488,2.457,3.895,2.695c2.88,0.282,3.103,0.703,3.103,1.269c0,0.983-0.789,1.402-2.642,1.402 c-2.327,0-2.839-0.584-3.011-1.742c-0.02-0.124-0.126-0.215-0.253-0.215h-1.137c-0.141,0-0.254,0.112-0.254,0.253 c0,1.482,0.806,3.248,4.655,3.248C17.501,17.007,19.099,15.91,19.099,13.993z" fill="#6cc24a"/></g>
<text x="157" y="151.5" font-size="12.5" fill="#f2f4f2">Node.js</text>
<rect x="227" y="134" width="95" height="26" rx="13" fill="#0d110f"/>
<g transform="translate(239 140) scale(0.583)"><path d="M12.262 16.666h1.146l6.975-9.325H19.22zm9.778 1.441v.004l-4.334-5.706-.557.74 4.873 6.682H.945V4.173h9.505l5.026 6.7.574-.772-4.374-5.928h.003l-.719-.945H0v17.544h24zM10.917 8.705a3.8 3.8 0 0 0-1.292-1.183q-.796-.45-1.916-.45c-.746 0-1.37.14-1.906.424a3.76 3.76 0 0 0-1.31 1.12 4.9 4.9 0 0 0-.75 1.581 7.17 7.17 0 0 0 0 3.696c.148.567.402 1.101.75 1.573a3.5 3.5 0 0 0 1.31 1.066q.803.39 1.906.389 1.77 0 2.739-.868.966-.867 1.328-2.457h-1.139q-.271 1.084-.977 1.734-.704.651-1.952.65-.812 0-1.392-.342a3.1 3.1 0 0 1-.957-.869 3.5 3.5 0 0 1-.551-1.182 5 5 0 0 1-.17-1.133 9 9 0 0 0-.015-.286 4.5 4.5 0 0 1 .015-.829c.047-.418.147-.83.296-1.223A3.7 3.7 0 0 1 5.54 9.05a2.9 2.9 0 0 1 .922-.742q.541-.28 1.246-.28c.47 0 .869.093 1.23.28q.541.281.922.742.379.461.587 1.057t.225 1.246H5.625l.004.957h6.182a7.3 7.3 0 0 0-.18-1.924 4.9 4.9 0 0 0-.715-1.68z" fill="#ffffff"/></g>
<text x="260" y="151.5" font-size="12.5" fill="#f2f4f2">Express</text>
<text x="44" y="187" font-size="9.5" letter-spacing="1.1" font-weight="600" fill="#2f3d34">FRONTEND</text>
<rect x="124" y="170" width="81" height="26" rx="13" fill="#0d110f"/>
<g transform="translate(136 176) scale(0.583)"><path d="M14.23 12.004a2.236 2.236 0 0 1-2.235 2.236 2.236 2.236 0 0 1-2.236-2.236 2.236 2.236 0 0 1 2.235-2.236 2.236 2.236 0 0 1 2.236 2.236zm2.648-10.69c-1.346 0-3.107.96-4.888 2.622-1.78-1.653-3.542-2.602-4.887-2.602-.41 0-.783.093-1.106.278-1.375.793-1.683 3.264-.973 6.365C1.98 8.917 0 10.42 0 12.004c0 1.59 1.99 3.097 5.043 4.03-.704 3.113-.39 5.588.988 6.38.32.187.69.275 1.102.275 1.345 0 3.107-.96 4.888-2.624 1.78 1.654 3.542 2.603 4.887 2.603.41 0 .783-.09 1.106-.275 1.374-.792 1.683-3.263.973-6.365C22.02 15.096 24 13.59 24 12.004c0-1.59-1.99-3.097-5.043-4.032.704-3.11.39-5.587-.988-6.38-.318-.184-.688-.277-1.092-.278zm-.005 1.09v.006c.225 0 .406.044.558.127.666.382.955 1.835.73 3.704-.054.46-.142.945-.25 1.44-.96-.236-2.006-.417-3.107-.534-.66-.905-1.345-1.727-2.035-2.447 1.592-1.48 3.087-2.292 4.105-2.295zm-9.77.02c1.012 0 2.514.808 4.11 2.28-.686.72-1.37 1.537-2.02 2.442-1.107.117-2.154.298-3.113.538-.112-.49-.195-.964-.254-1.42-.23-1.868.054-3.32.714-3.707.19-.09.4-.127.563-.132zm4.882 3.05c.455.468.91.992 1.36 1.564-.44-.02-.89-.034-1.345-.034-.46 0-.915.01-1.36.034.44-.572.895-1.096 1.345-1.565zM12 8.1c.74 0 1.477.034 2.202.093.406.582.802 1.203 1.183 1.86.372.64.71 1.29 1.018 1.946-.308.655-.646 1.31-1.013 1.95-.38.66-.773 1.288-1.18 1.87-.728.063-1.466.098-2.21.098-.74 0-1.477-.035-2.202-.093-.406-.582-.802-1.204-1.183-1.86-.372-.64-.71-1.29-1.018-1.946.303-.657.646-1.313 1.013-1.954.38-.66.773-1.286 1.18-1.868.728-.064 1.466-.098 2.21-.098zm-3.635.254c-.24.377-.48.763-.704 1.16-.225.39-.435.782-.635 1.174-.265-.656-.49-1.31-.676-1.947.64-.15 1.315-.283 2.015-.386zm7.26 0c.695.103 1.365.23 2.006.387-.18.632-.405 1.282-.66 1.933-.2-.39-.41-.783-.64-1.174-.225-.392-.465-.774-.705-1.146zm3.063.675c.484.15.944.317 1.375.498 1.732.74 2.852 1.708 2.852 2.476-.005.768-1.125 1.74-2.857 2.475-.42.18-.88.342-1.355.493-.28-.958-.646-1.956-1.1-2.98.45-1.017.81-2.01 1.085-2.964zm-13.395.004c.278.96.645 1.957 1.1 2.98-.45 1.017-.812 2.01-1.086 2.964-.484-.15-.944-.318-1.37-.5-1.732-.737-2.852-1.706-2.852-2.474 0-.768 1.12-1.742 2.852-2.476.42-.18.88-.342 1.356-.494zm11.678 4.28c.265.657.49 1.312.676 1.948-.64.157-1.316.29-2.016.39.24-.375.48-.762.705-1.158.225-.39.435-.788.636-1.18zm-9.945.02c.2.392.41.783.64 1.175.23.39.465.772.705 1.143-.695-.102-1.365-.23-2.006-.386.18-.63.406-1.282.66-1.933zM17.92 16.32c.112.493.2.968.254 1.423.23 1.868-.054 3.32-.714 3.708-.147.09-.338.128-.563.128-1.012 0-2.514-.807-4.11-2.28.686-.72 1.37-1.536 2.02-2.44 1.107-.118 2.154-.3 3.113-.54zm-11.83.01c.96.234 2.006.415 3.107.532.66.905 1.345 1.727 2.035 2.446-1.595 1.483-3.092 2.295-4.11 2.295-.22-.005-.406-.05-.553-.132-.666-.38-.955-1.834-.73-3.703.054-.46.142-.944.25-1.438zm4.56.64c.44.02.89.034 1.345.034.46 0 .915-.01 1.36-.034-.44.572-.895 1.095-1.345 1.565-.455-.47-.91-.993-1.36-1.565z" fill="#61dafb"/></g>
<text x="157" y="187.5" font-size="12.5" fill="#f2f4f2">React</text>
<text x="44" y="223" font-size="9.5" letter-spacing="1.1" font-weight="600" fill="#2f3d34">DATA</text>
<rect x="124" y="206" width="117" height="26" rx="13" fill="#0d110f"/>
<g transform="translate(136 212) scale(0.583)"><path d="M23.5594 14.7228a.5269.5269 0 0 0-.0563-.1191c-.139-.2632-.4768-.3418-1.0074-.2321-1.6533.3411-2.2935.1312-2.5256-.0191 1.342-2.0482 2.445-4.522 3.0411-6.8297.2714-1.0507.7982-3.5237.1222-4.7316a1.5641 1.5641 0 0 0-.1509-.235C21.6931.9086 19.8007.0248 17.5099.0005c-1.4947-.0158-2.7705.3461-3.1161.4794a9.449 9.449 0 0 0-.5159-.0816 8.044 8.044 0 0 0-1.3114-.1278c-1.1822-.0184-2.2038.2642-3.0498.8406-.8573-.3211-4.7888-1.645-7.2219.0788C.9359 2.1526.3086 3.8733.4302 6.3043c.0409.818.5069 3.334 1.2423 5.7436.4598 1.5065.9387 2.7019 1.4334 3.582.553.9942 1.1259 1.5933 1.7143 1.7895.4474.1491 1.1327.1441 1.8581-.7279.8012-.9635 1.5903-1.8258 1.9446-2.2069.4351.2355.9064.3625 1.39.3772a.0569.0569 0 0 0 .0004.0041 11.0312 11.0312 0 0 0-.2472.3054c-.3389.4302-.4094.5197-1.5002.7443-.3102.064-1.1344.2339-1.1464.8115-.0025.1224.0329.2309.0919.3268.2269.4231.9216.6097 1.015.6331 1.3345.3335 2.5044.092 3.3714-.6787-.017 2.231.0775 4.4174.3454 5.0874.2212.5529.7618 1.9045 2.4692 1.9043.2505 0 .5263-.0291.8296-.0941 1.7819-.3821 2.5557-1.1696 2.855-2.9059.1503-.8707.4016-2.8753.5388-4.1012.0169-.0703.0357-.1207.057-.1362.0007-.0005.0697-.0471.4272.0307a.3673.3673 0 0 0 .0443.0068l.2539.0223.0149.001c.8468.0384 1.9114-.1426 2.5312-.4308.6438-.2988 1.8057-1.0323 1.5951-1.6698zM2.371 11.8765c-.7435-2.4358-1.1779-4.8851-1.2123-5.5719-.1086-2.1714.4171-3.6829 1.5623-4.4927 1.8367-1.2986 4.8398-.5408 6.108-.13-.0032.0032-.0066.0061-.0098.0094-2.0238 2.044-1.9758 5.536-1.9708 5.7495-.0002.0823.0066.1989.0162.3593.0348.5873.0996 1.6804-.0735 2.9184-.1609 1.1504.1937 2.2764.9728 3.0892.0806.0841.1648.1631.2518.2374-.3468.3714-1.1004 1.1926-1.9025 2.1576-.5677.6825-.9597.5517-1.0886.5087-.3919-.1307-.813-.5871-1.2381-1.3223-.4796-.839-.9635-2.0317-1.4155-3.5126zm6.0072 5.0871c-.1711-.0428-.3271-.1132-.4322-.1772.0889-.0394.2374-.0902.4833-.1409 1.2833-.2641 1.4815-.4506 1.9143-1.0002.0992-.126.2116-.2687.3673-.4426a.3549.3549 0 0 0 .0737-.1298c.1708-.1513.2724-.1099.4369-.0417.156.0646.3078.26.3695.4752.0291.1016.0619.2945-.0452.4444-.9043 1.2658-2.2216 1.2494-3.1676 1.0128zm2.094-3.988-.0525.141c-.133.3566-.2567.6881-.3334 1.003-.6674-.0021-1.3168-.2872-1.8105-.8024-.6279-.6551-.9131-1.5664-.7825-2.5004.1828-1.3079.1153-2.4468.079-3.0586-.005-.0857-.0095-.1607-.0122-.2199.2957-.2621 1.6659-.9962 2.6429-.7724.4459.1022.7176.4057.8305.928.5846 2.7038.0774 3.8307-.3302 4.7363-.084.1866-.1633.3629-.2311.5454zm7.3637 4.5725c-.0169.1768-.0358.376-.0618.5959l-.146.4383a.3547.3547 0 0 0-.0182.1077c-.0059.4747-.054.6489-.115.8693-.0634.2292-.1353.4891-.1794 1.0575-.11 1.4143-.8782 2.2267-2.4172 2.5565-1.5155.3251-1.7843-.4968-2.0212-1.2217a6.5824 6.5824 0 0 0-.0769-.2266c-.2154-.5858-.1911-1.4119-.1574-2.5551.0165-.5612-.0249-1.9013-.3302-2.6462.0044-.2932.0106-.5909.019-.8918a.3529.3529 0 0 0-.0153-.1126 1.4927 1.4927 0 0 0-.0439-.208c-.1226-.4283-.4213-.7866-.7797-.9351-.1424-.059-.4038-.1672-.7178-.0869.067-.276.1831-.5875.309-.9249l.0529-.142c.0595-.16.134-.3257.213-.5012.4265-.9476 1.0106-2.2453.3766-5.1772-.2374-1.0981-1.0304-1.6343-2.2324-1.5098-.7207.0746-1.3799.3654-1.7088.5321a5.6716 5.6716 0 0 0-.1958.1041c.0918-1.1064.4386-3.1741 1.7357-4.4823a4.0306 4.0306 0 0 1 .3033-.276.3532.3532 0 0 0 .1447-.0644c.7524-.5706 1.6945-.8506 2.802-.8325.4091.0067.8017.0339 1.1742.081 1.939.3544 3.2439 1.4468 4.0359 2.3827.8143.9623 1.2552 1.9315 1.4312 2.4543-1.3232-.1346-2.2234.1268-2.6797.779-.9926 1.4189.543 4.1729 1.2811 5.4964.1353.2426.2522.4522.2889.5413.2403.5825.5515.9713.7787 1.2552.0696.087.1372.1714.1885.245-.4008.1155-1.1208.3825-1.0552 1.717-.0123.1563-.0423.4469-.0834.8148-.0461.2077-.0702.4603-.0994.7662zm.8905-1.6211c-.0405-.8316.2691-.9185.5967-1.0105a2.8566 2.8566 0 0 0 .135-.0406 1.202 1.202 0 0 0 .1342.103c.5703.3765 1.5823.4213 3.0068.1344-.2016.1769-.5189.3994-.9533.6011-.4098.1903-1.0957.333-1.7473.3636-.7197.0336-1.0859-.0807-1.1721-.151zm.5695-9.2712c-.0059.3508-.0542.6692-.1054 1.0017-.055.3576-.112.7274-.1264 1.1762-.0142.4368.0404.8909.0932 1.3301.1066.887.216 1.8003-.2075 2.7014a3.5272 3.5272 0 0 1-.1876-.3856c-.0527-.1276-.1669-.3326-.3251-.6162-.6156-1.1041-2.0574-3.6896-1.3193-4.7446.3795-.5427 1.3408-.5661 2.1781-.463zm.2284 7.0137a12.3762 12.3762 0 0 0-.0853-.1074l-.0355-.0444c.7262-1.1995.5842-2.3862.4578-3.4385-.0519-.4318-.1009-.8396-.0885-1.2226.0129-.4061.0666-.7543.1185-1.0911.0639-.415.1288-.8443.1109-1.3505.0134-.0531.0188-.1158.0118-.1902-.0457-.4855-.5999-1.938-1.7294-3.253-.6076-.7073-1.4896-1.4972-2.6889-2.0395.5251-.1066 1.2328-.2035 2.0244-.1859 2.0515.0456 3.6746.8135 4.8242 2.2824a.908.908 0 0 1 .0667.1002c.7231 1.3556-.2762 6.2751-2.9867 10.5405zm-8.8166-6.1162c-.025.1794-.3089.4225-.6211.4225a.5821.5821 0 0 1-.0809-.0056c-.1873-.026-.3765-.144-.5059-.3156-.0458-.0605-.1203-.178-.1055-.2844.0055-.0401.0261-.0985.0925-.1488.1182-.0894.3518-.1226.6096-.0867.3163.0441.6426.1938.6113.4186zm7.9305-.4114c.0111.0792-.049.201-.1531.3102-.0683.0717-.212.1961-.4079.2232a.5456.5456 0 0 1-.075.0052c-.2935 0-.5414-.2344-.5607-.3717-.024-.1765.2641-.3106.5611-.352.297-.0414.6111.0088.6356.1851z" fill="#6d97e8"/></g>
<text x="157" y="223.5" font-size="12.5" fill="#f2f4f2">PostgreSQL</text>
<rect x="249" y="206" width="81" height="26" rx="13" fill="#0d110f"/>
<g transform="translate(261 212) scale(0.583)"><path d="M22.71 13.145c-1.66 2.092-3.452 4.483-7.038 4.483-3.203 0-4.397-2.825-4.48-5.12.701 1.484 2.073 2.685 4.214 2.63 4.117-.133 6.94-3.852 6.94-7.239 0-4.05-3.022-6.972-8.268-6.972-3.752 0-8.4 1.428-11.455 3.685C2.59 6.937 3.885 9.958 4.35 9.626c2.648-1.904 4.748-3.13 6.784-3.744C8.12 9.244.886 17.05 0 18.425c.1 1.261 1.66 4.648 2.424 4.648.232 0 .431-.133.664-.365a100.49 100.49 0 0 0 5.54-6.765c.222 3.104 1.748 6.898 6.014 6.898 3.819 0 7.604-2.756 9.33-8.965.2-.764-.73-1.361-1.261-.73zm-4.349-5.013c0 1.959-1.926 2.922-3.685 2.922-.941 0-1.664-.247-2.235-.568 1.051-1.592 2.092-3.225 3.21-4.973 1.972.334 2.71 1.43 2.71 2.619z" fill="#ff5a4d"/></g>
<text x="282" y="223.5" font-size="12.5" fill="#f2f4f2">Redis</text>
<rect x="338" y="206" width="81" height="26" rx="13" fill="#0d110f"/>
<g transform="translate(350 212) scale(0.583)"><path d="M16.405 5.501c-.115 0-.193.014-.274.033v.013h.014c.054.104.146.18.214.273.054.107.1.214.154.32l.014-.015c.094-.066.14-.172.14-.333-.04-.047-.046-.094-.08-.14-.04-.067-.126-.1-.18-.153zM5.77 18.695h-.927a50.854 50.854 0 00-.27-4.41h-.008l-1.41 4.41H2.45l-1.4-4.41h-.01a72.892 72.892 0 00-.195 4.41H0c.055-1.966.192-3.81.41-5.53h1.15l1.335 4.064h.008l1.347-4.064h1.095c.242 2.015.384 3.86.428 5.53zm4.017-4.08c-.378 2.045-.876 3.533-1.492 4.46-.482.716-1.01 1.073-1.583 1.073-.153 0-.34-.046-.566-.138v-.494c.11.017.24.026.386.026.268 0 .483-.075.647-.222.197-.18.295-.382.295-.605 0-.155-.077-.47-.23-.944L6.23 14.615h.91l.727 2.36c.164.536.233.91.205 1.123.4-1.064.678-2.227.835-3.483zm12.325 4.08h-2.63v-5.53h.885v4.85h1.745zm-3.32.135l-1.016-.5c.09-.076.177-.158.255-.25.433-.506.648-1.258.648-2.253 0-1.83-.718-2.746-2.155-2.746-.704 0-1.254.232-1.65.697-.43.508-.646 1.256-.646 2.245 0 .972.19 1.686.574 2.14.35.41.877.615 1.583.615.264 0 .506-.033.725-.098l1.325.772.36-.622zM15.5 17.588c-.225-.36-.337-.94-.337-1.736 0-1.393.424-2.09 1.27-2.09.443 0 .77.167.977.5.224.362.336.936.336 1.723 0 1.404-.424 2.108-1.27 2.108-.445 0-.77-.167-.978-.5zm-1.658-.425c0 .47-.172.856-.516 1.156-.344.3-.803.45-1.384.45-.543 0-1.064-.172-1.573-.515l.237-.476c.438.22.833.328 1.19.328.332 0 .593-.073.783-.22a.754.754 0 00.3-.615c0-.33-.23-.61-.648-.845-.388-.213-1.163-.657-1.163-.657-.422-.307-.632-.636-.632-1.177 0-.45.157-.81.47-1.085.315-.278.72-.415 1.22-.415.512 0 .98.136 1.4.41l-.213.476a2.726 2.726 0 00-1.064-.23c-.283 0-.502.068-.654.206a.685.685 0 00-.248.524c0 .328.234.61.666.85.393.215 1.187.67 1.187.67.433.305.648.63.648 1.168zm9.382-5.852c-.535-.014-.95.04-1.297.188-.1.04-.26.04-.274.167.055.053.063.14.11.214.08.134.218.313.346.407.14.11.28.216.427.31.26.16.555.255.81.416.145.094.293.213.44.313.073.05.12.14.214.172v-.02c-.046-.06-.06-.147-.105-.214-.067-.067-.134-.127-.2-.193a3.223 3.223 0 00-.695-.675c-.214-.146-.682-.35-.77-.595l-.013-.014c.146-.013.32-.066.46-.106.227-.06.435-.047.67-.106.106-.027.213-.06.32-.094v-.06c-.12-.12-.21-.283-.334-.395a8.867 8.867 0 00-1.104-.823c-.21-.134-.476-.22-.697-.334-.08-.04-.214-.06-.26-.127-.12-.146-.19-.34-.275-.514a17.69 17.69 0 01-.547-1.163c-.12-.262-.193-.523-.34-.763-.69-1.137-1.437-1.826-2.586-2.5-.247-.14-.543-.2-.856-.274-.167-.008-.334-.02-.5-.027-.11-.047-.216-.174-.31-.235-.38-.24-1.364-.76-1.644-.072-.18.434.267.862.422 1.082.115.153.26.328.34.5.047.116.06.235.107.356.106.294.207.622.347.897.073.14.153.287.247.413.054.073.146.107.167.227-.094.136-.1.334-.154.5-.24.757-.146 1.693.194 2.25.107.166.362.534.703.393.3-.12.234-.5.32-.835.02-.08.007-.133.048-.187v.015c.094.188.188.367.274.555.206.328.566.668.867.895.16.12.287.328.487.402v-.02h-.015c-.043-.058-.1-.086-.154-.133a3.445 3.445 0 01-.35-.4 8.76 8.76 0 01-.747-1.218c-.11-.21-.202-.436-.29-.643-.04-.08-.04-.2-.107-.24-.1.146-.247.273-.32.453-.127.288-.14.642-.188 1.01-.027.007-.014 0-.027.014-.214-.052-.287-.274-.367-.46-.2-.475-.233-1.238-.06-1.785.047-.14.247-.582.167-.716-.042-.127-.174-.2-.247-.303a2.478 2.478 0 01-.24-.427c-.16-.374-.24-.788-.414-1.162-.08-.173-.22-.354-.334-.513-.127-.18-.267-.307-.368-.52-.033-.073-.08-.194-.027-.274.014-.054.042-.075.094-.09.088-.072.335.022.422.062.247.1.455.194.662.334.094.066.195.193.315.226h.14c.214.047.455.014.655.073.355.114.675.28.962.46a5.953 5.953 0 012.085 2.286c.08.154.115.295.188.455.14.33.313.663.455.982.14.315.275.636.476.897.1.14.502.213.682.286.133.06.34.115.46.188.23.14.454.3.67.454.11.076.443.243.463.378z" fill="#5aa0d0"/></g>
<text x="371" y="223.5" font-size="12.5" fill="#f2f4f2">MySQL</text>
<text x="44" y="259" font-size="9.5" letter-spacing="1.1" font-weight="600" fill="#2f3d34">TOOLS</text>
<rect x="124" y="242" width="74" height="26" rx="13" fill="#0d110f"/>
<g transform="translate(136 248) scale(0.583)"><path d="M21.038,4.9l-7.577-4.498C13.009,0.134,12.505,0,12,0c-0.505,0-1.009,0.134-1.462,0.403L2.961,4.9 C2.057,5.437,1.5,6.429,1.5,7.503v8.995c0,1.073,0.557,2.066,1.462,2.603l7.577,4.497C10.991,23.866,11.495,24,12,24 c0.505,0,1.009-0.134,1.461-0.402l7.577-4.497c0.904-0.537,1.462-1.529,1.462-2.603V7.503C22.5,6.429,21.943,5.437,21.038,4.9z M15.17,18.946l0.013,0.646c0.001,0.078-0.05,0.167-0.111,0.198l-0.383,0.22c-0.061,0.031-0.111-0.007-0.112-0.085L14.57,19.29 c-0.328,0.136-0.66,0.169-0.872,0.084c-0.04-0.016-0.057-0.075-0.041-0.142l0.139-0.584c0.011-0.046,0.036-0.092,0.069-0.121 c0.012-0.011,0.024-0.02,0.036-0.026c0.022-0.011,0.043-0.014,0.062-0.006c0.229,0.077,0.521,0.041,0.802-0.101 c0.357-0.181,0.596-0.545,0.592-0.907c-0.003-0.328-0.181-0.465-0.613-0.468c-0.55,0.001-1.064-0.107-1.072-0.917 c-0.007-0.667,0.34-1.361,0.889-1.8l-0.007-0.652c-0.001-0.08,0.048-0.168,0.111-0.2l0.37-0.236 c0.061-0.031,0.111,0.007,0.112,0.087l0.006,0.653c0.273-0.109,0.511-0.138,0.726-0.088c0.047,0.012,0.067,0.076,0.048,0.151 l-0.144,0.578c-0.011,0.044-0.036,0.088-0.065,0.116c-0.012,0.012-0.025,0.021-0.038,0.028c-0.019,0.01-0.038,0.013-0.057,0.009 c-0.098-0.022-0.332-0.073-0.699,0.113c-0.385,0.195-0.52,0.53-0.517,0.778c0.003,0.297,0.155,0.387,0.681,0.396 c0.7,0.012,1.003,0.318,1.01,1.023C16.105,17.747,15.736,18.491,15.17,18.946z M19.143,17.859c0,0.06-0.008,0.116-0.058,0.145 l-1.916,1.164c-0.05,0.029-0.09,0.004-0.09-0.056v-0.494c0-0.06,0.037-0.093,0.087-0.122l1.887-1.129 c0.05-0.029,0.09-0.004,0.09,0.056V17.859z M20.459,6.797l-7.168,4.427c-0.894,0.523-1.553,1.109-1.553,2.187v8.833 c0,0.645,0.26,1.063,0.66,1.184c-0.131,0.023-0.264,0.039-0.398,0.039c-0.42,0-0.833-0.114-1.197-0.33L3.226,18.64 c-0.741-0.44-1.201-1.261-1.201-2.142V7.503c0-0.881,0.46-1.702,1.201-2.142l7.577-4.498c0.363-0.216,0.777-0.33,1.197-0.33 c0.419,0,0.833,0.114,1.197,0.33l7.577,4.498c0.624,0.371,1.046,1.013,1.164,1.732C21.686,6.557,21.12,6.411,20.459,6.797z" fill="#6cc24a"/></g>
<text x="157" y="259.5" font-size="12.5" fill="#f2f4f2">Bash</text>
</g></g></svg>
